<svg width="581" height="481" viewBox="0 0 581 481" fill="none" xmlns="http://www.w3.org/2000/svg">
<g opacity="0.33">
<path d="M267.492 333.454C347.967 333.454 413.205 268.179 413.205 187.658C413.205 107.137 347.967 41.8621 267.492 41.8621C187.017 41.8621 121.78 107.137 121.78 187.658C121.78 268.179 187.017 333.454 267.492 333.454Z" stroke="#91B7F6" stroke-width="1.92711" stroke-miterlimit="10" stroke-linecap="round" stroke-dasharray="7.68 7.68"/>
<path d="M417.845 243.365C433.219 243.365 445.682 230.895 445.682 215.512C445.682 200.129 433.219 187.658 417.845 187.658C402.47 187.658 390.007 200.129 390.007 215.512C390.007 230.895 402.47 243.365 417.845 243.365Z" fill="#8FA4FB"/>
<path d="M267.492 285.508C321.502 285.508 365.286 241.699 365.286 187.658C365.286 133.617 321.502 89.8083 267.492 89.8083C213.482 89.8083 169.698 133.617 169.698 187.658C169.698 241.699 213.482 285.508 267.492 285.508Z" stroke="#91B7F6" stroke-width="1.92711" stroke-miterlimit="10" stroke-linecap="round" stroke-dasharray="7.73 7.73"/>
<path d="M377.32 149.069C407.869 149.069 432.633 124.291 432.633 93.725C432.633 63.1591 407.869 38.3806 377.32 38.3806C346.772 38.3806 322.008 63.1591 322.008 93.725C322.008 124.291 346.772 149.069 377.32 149.069Z" fill="#8FA4FB"/>
<path d="M128.666 163.287C141.719 163.287 152.299 152.7 152.299 139.64C152.299 126.581 141.719 115.994 128.666 115.994C115.614 115.994 105.033 126.581 105.033 139.64C105.033 152.7 115.614 163.287 128.666 163.287Z" fill="#8FA4FB"/>
<path d="M341.653 96.409H365.721L375.581 71.0942L384.207 112.367L392.399 96.409H405.81" stroke="white" stroke-width="6.98038" stroke-miterlimit="10" stroke-linecap="round"/>
<path d="M137.583 133.33C135.118 130.863 131.131 130.863 128.739 133.33C126.274 130.863 122.287 130.863 119.895 133.33C117.43 135.796 117.43 139.785 119.895 142.179L124.317 146.604L128.739 151.028L133.161 146.604L137.583 142.179C140.048 139.713 140.048 135.796 137.583 133.33Z" fill="white"/>
<path d="M353.035 321.703C361.563 321.703 368.476 314.786 368.476 306.253C368.476 297.72 361.563 290.803 353.035 290.803C344.507 290.803 337.594 297.72 337.594 306.253C337.594 314.786 344.507 321.703 353.035 321.703Z" fill="#8FA4FB"/>
<path d="M358.834 302.046C357.24 300.45 354.63 300.45 353.035 302.046C351.44 300.45 348.83 300.45 347.236 302.046C345.641 303.642 345.641 306.253 347.236 307.849L350.135 310.75L353.035 313.652L355.935 310.75L358.834 307.849C360.429 306.253 360.429 303.715 358.834 302.046Z" fill="white"/>
<path d="M239.727 359.059C254.981 359.059 267.347 346.686 267.347 331.423C267.347 316.16 254.981 303.787 239.727 303.787C224.473 303.787 212.107 316.16 212.107 331.423C212.107 346.686 224.473 359.059 239.727 359.059Z" fill="#8FA4FB"/>
<path d="M166.508 89.8087C170.592 89.8087 173.903 86.4962 173.903 82.4101C173.903 78.3239 170.592 75.0115 166.508 75.0115C162.425 75.0115 159.114 78.3239 159.114 82.4101C159.114 86.4962 162.425 89.8087 166.508 89.8087Z" fill="#5AA3F4"/>
<path d="M314.251 23.3658C318.335 23.3658 321.645 20.0533 321.645 15.9672C321.645 11.8811 318.335 8.5686 314.251 8.5686C310.167 8.5686 306.857 11.8811 306.857 15.9672C306.857 20.0533 310.167 23.3658 314.251 23.3658Z" fill="#5AA3F4"/>
<path d="M152.952 210.072C155.835 210.072 158.172 207.734 158.172 204.849C158.172 201.965 155.835 199.627 152.952 199.627C150.069 199.627 147.732 201.965 147.732 204.849C147.732 207.734 150.069 210.072 152.952 210.072Z" fill="#5AA3F4"/>
<path d="M166.508 314.087C168.67 314.087 170.423 312.334 170.423 310.171C170.423 308.007 168.67 306.254 166.508 306.254C164.346 306.254 162.594 308.007 162.594 310.171C162.594 312.334 164.346 314.087 166.508 314.087Z" fill="#5AA3F4"/>
<path d="M443 163.431C445.162 163.431 446.915 161.678 446.915 159.515C446.915 157.351 445.162 155.598 443 155.598C440.838 155.598 439.085 157.351 439.085 159.515C439.085 161.678 440.838 163.431 443 163.431Z" fill="#5AA3F4"/>
<path d="M200.943 121.288C203.105 121.288 204.858 119.535 204.858 117.372C204.858 115.208 203.105 113.455 200.943 113.455C198.781 113.455 197.028 115.208 197.028 117.372C197.028 119.535 198.781 121.288 200.943 121.288Z" fill="#5AA3F4"/>
<path d="M362.967 188.746C367.411 188.746 371.014 185.141 371.014 180.695C371.014 176.248 367.411 172.643 362.967 172.643C358.523 172.643 354.92 176.248 354.92 180.695C354.92 185.141 358.523 188.746 362.967 188.746Z" fill="#5AA3F4"/>
<path d="M298.882 334.687C301.485 334.687 303.594 332.576 303.594 329.972C303.594 327.368 301.485 325.257 298.882 325.257C296.28 325.257 294.17 327.368 294.17 329.972C294.17 332.576 296.28 334.687 298.882 334.687Z" fill="#5AA3F4"/>
<path d="M214.282 71.6022C221.314 77.6227 230.448 81.2494 240.38 81.2494C262.635 81.2494 280.614 63.1882 280.614 40.9924C280.614 18.7966 262.563 0.735352 240.38 0.735352C218.124 0.735352 200.145 18.7966 200.145 40.9924C200.145 48.7537 202.32 56.0072 206.162 62.1727L193.766 83.2804L214.282 71.6022Z" fill="#8FA4FB"/>
<path d="M247.919 334.47C247.049 333.599 245.962 333.599 245.092 334.47C244.439 335.122 243.787 335.775 243.134 336.428C242.989 336.646 242.772 336.646 242.554 336.501C242.119 336.283 241.684 336.065 241.249 335.848C239.365 334.615 237.697 333.091 236.32 331.351C235.595 330.48 235.015 329.537 234.58 328.522C234.508 328.304 234.508 328.159 234.653 328.014C235.305 327.361 235.957 326.708 236.61 326.056C237.552 325.113 237.552 324.097 236.61 323.154C236.102 322.646 235.595 322.139 235.087 321.631C234.58 321.123 234 320.543 233.493 320.035C232.623 319.165 231.535 319.165 230.665 320.035C230.013 320.688 229.36 321.341 228.708 321.994C228.056 322.574 227.766 323.299 227.693 324.17C227.621 325.548 227.911 326.853 228.418 328.159C229.361 330.77 230.883 333.164 232.695 335.267C235.16 338.169 238.06 340.49 241.467 342.158C242.989 342.884 244.584 343.464 246.324 343.536C247.484 343.609 248.571 343.319 249.369 342.376C249.949 341.723 250.601 341.143 251.181 340.563C252.051 339.692 252.051 338.604 251.181 337.661C250.094 336.573 249.006 335.558 247.919 334.47Z" fill="white"/>
<path d="M413.423 202.093H405.666V209.854H413.423V202.093Z" fill="white"/>
<path d="M422.992 202.093H415.235V209.854H422.992V202.093Z" fill="white"/>
<path d="M432.561 202.093H424.804V209.854H432.561V202.093Z" fill="white"/>
<path d="M413.423 211.667H405.666V219.429H413.423V211.667Z" fill="white"/>
<path d="M422.992 211.667H415.235V219.429H422.992V211.667Z" fill="white"/>
<path d="M432.561 211.667H424.804V219.429H432.561V211.667Z" fill="white"/>
<path d="M413.423 221.242H405.666V229.003H413.423V221.242Z" fill="white"/>
<path d="M422.992 221.242H415.235V229.003H422.992V221.242Z" fill="white"/>
<path d="M432.561 221.242H424.804V229.003H432.561V221.242Z" fill="white"/>
</g>
<path d="M578 481H0C0 481 16.6535 371.327 80.8306 374.188C145.008 377.049 107.192 294.509 110.888 238.767C116.169 159.135 267.919 88.8013 321.698 240.197C353.38 329.366 394.405 308.385 425.275 299.325C442.781 294.175 470.767 316.014 466.299 368.943C459.191 453.2 482.953 459.065 516.26 450.482C549.567 441.899 578 481 578 481Z" fill="url(#paint0_linear_1026_241)"/>
<path d="M419.837 172.569C419.837 172.569 405.13 212.503 406.349 241.672C406.349 241.672 418.902 193.166 425.565 183.213L419.837 172.569Z" fill="#0C2F3D"/>
<path d="M454.002 174.478L428.246 189.672L417.765 171.391L413.905 164.647L413.865 164.525C396.152 179.922 382.462 143.766 377.993 129.791C376.977 126.582 376.409 124.55 376.409 124.55L418.049 103.507C418.049 103.507 430.927 130.603 431.415 131.578C431.496 131.782 432.552 133.772 434.137 136.738C440.109 148.235 454.002 174.478 454.002 174.478Z" fill="#FAB074"/>
<path d="M431.131 117.238C432.146 109.641 426.093 106.431 423.859 105.538C425.28 103.303 426.743 98.6314 419.837 93.1876C419.837 93.1876 424.834 98.4689 423.087 103.547C422.762 98.1439 418.699 82.9095 380.756 101.556C380.756 101.556 368.812 106.919 364.79 107.122C360.402 107.366 354.877 123.616 372.143 126.5C366.09 126.175 362.921 124.916 362.921 124.916C374.784 134.747 392.618 127.313 398.184 124.591C399.89 124.103 401.109 124.469 402.287 124.794C405.577 125.728 405.74 128.409 407.568 133.203L412.24 129.303C412.24 129.303 411.265 125.484 412.89 123.088C414.799 120.203 418.334 119.188 420.893 121.544C427.149 127.394 423.127 135.153 423.127 135.153C423.127 135.153 430.846 138.972 434.909 136.453C434.909 136.413 429.506 129.384 431.131 117.238Z" fill="#0C2F3D"/>
<path d="M350.409 227.007L343.543 239.479L333.956 232.857L322.377 224.854C310.556 222.66 305.559 211.163 305.559 211.163C295.28 209.619 283.052 199.951 287.399 194.344C291.746 188.738 302.471 188.738 302.471 188.738L322.093 192.151L332.655 199.301C338.871 204.582 341.674 218.597 341.674 218.597L345.737 222.497L350.409 227.007Z" fill="#FFAAAD"/>
<path opacity="0.1" d="M345.723 223.156L349.84 227.094L343.387 238.817L334.696 232.814L345.723 223.156Z" fill="#434A54" stroke="#434A54" stroke-width="0.911765"/>
<path d="M350.206 172.163L363.409 158.96L371.331 166.841L358.087 180.085L350.206 172.163Z" fill="url(#paint1_linear_1026_241)"/>
<path d="M360.565 161.153L369.137 169.725C370.396 170.985 372.468 170.985 373.727 169.725C374.987 168.466 374.987 166.394 373.727 165.135L365.155 156.563C363.896 155.303 361.824 155.303 360.565 156.563C359.306 157.781 359.306 159.853 360.565 161.153Z" fill="#0C2F3D"/>
<path d="M407.974 267.591L387.865 303.625L357.68 276.285L329.893 251.138L347.565 220.628L396.924 258.978L407.974 267.591Z" fill="url(#paint2_linear_1026_241)"/>
<path d="M341.593 234.969H323.637V242.809H341.593V234.969Z" fill="#0C2F3D"/>
<path d="M306.534 236.675H346.224C347.687 236.675 348.865 235.497 348.865 234.035V233.75C348.865 232.288 347.687 231.11 346.224 231.11H296.052C294.59 231.11 293.412 229.931 293.412 228.469C293.412 222.863 296.499 217.703 301.456 215.063L359.346 183.985C360.89 183.172 361.215 181.1 360.037 179.841L352.887 172.081C350.53 169.522 346.752 168.75 343.584 170.213L275.984 201.047C269.524 203.972 265.38 210.431 265.38 217.541V297.044C265.38 298.506 266.559 299.685 268.021 299.685L301.212 299.969C302.674 299.969 303.893 298.791 303.893 297.328V283.719C303.893 282.256 305.071 281.078 306.534 281.078H347.605C349.068 281.078 350.246 279.941 350.246 278.478L350.49 266.372C350.53 264.869 349.312 263.65 347.849 263.65H306.493C305.03 263.65 303.852 262.472 303.852 261.01V239.397C303.852 237.853 305.031 236.675 306.534 236.675Z" fill="url(#paint3_linear_1026_241)"/>
<path d="M362.312 228.794H293.087V232.735H362.312V228.794Z" fill="#0C2F3D"/>
<path d="M348.662 241.104H316.487V245.572H348.662V241.104Z" fill="#A6A5BC"/>
<path d="M283.865 273.116C292.234 273.116 299.018 266.332 299.018 257.963C299.018 249.594 292.234 242.81 283.865 242.81C275.496 242.81 268.712 249.594 268.712 257.963C268.712 266.332 275.496 273.116 283.865 273.116Z" fill="#0C2F3D"/>
<path d="M283.865 267.51C289.137 267.51 293.412 263.235 293.412 257.963C293.412 252.69 289.137 248.416 283.865 248.416C278.592 248.416 274.318 252.69 274.318 257.963C274.318 263.235 278.592 267.51 283.865 267.51Z" fill="url(#paint4_linear_1026_241)"/>
<path d="M283.865 263.569C286.961 263.569 289.471 261.059 289.471 257.963C289.471 254.866 286.961 252.356 283.865 252.356C280.769 252.356 278.259 254.866 278.259 257.963C278.259 261.059 280.769 263.569 283.865 263.569Z" fill="#0C2F3D"/>
<path opacity="0.1" d="M397.046 259.651L407.386 267.71L387.746 302.902L358.741 276.63L388.36 273.488L388.583 273.464L388.7 273.272L397.046 259.651Z" fill="#434A54" stroke="#434A54" stroke-width="0.911765"/>
<path d="M336.718 281.891L333.387 296.922L321.484 295.5L315.024 294.688C302.796 288.025 295.565 269.663 295.565 269.663L288.334 264.097C283.906 266.86 281.102 263 281.102 263L284.434 259.669C280.534 261.335 278.868 258.003 278.868 258.003L284.434 253.535C281.671 253.535 281.021 251.3 281.021 251.3L297.23 241.835L312.79 254.063L323.921 280.753L327.577 281.078L336.718 281.891Z" fill="#FFAAAD"/>
<path d="M417.399 197.594C417.399 197.594 413.743 172.406 441.977 152.135C441.977 152.135 446.73 155.831 446.69 161.072L417.399 197.594Z" fill="#0C95BD"/>
<path d="M338.302 204.704L347.159 213.519L352.196 208.441L343.299 199.625L338.302 204.704Z" fill="url(#paint5_linear_1026_241)"/>
<path opacity="0.1" d="M327.868 281.562L336.159 282.299L332.992 296.38L322.14 295.079L327.868 281.562Z" fill="#434A54" stroke="#434A54" stroke-width="0.911765"/>
<path d="M521.48 321.297H436.046L434.015 281.85V281.728L430.155 287.782L416.506 309.15C413.906 313.253 409.234 315.569 404.399 315.163L325.952 308.582L327.984 278.6H391.562L411.712 209.66C419.634 182.197 446.121 159.61 446.121 159.61C501.005 182.156 521.48 321.297 521.48 321.297Z" fill="url(#paint6_linear_1026_241)"/>
<path d="M328.146 209.781L334.077 220.75L340.374 217.378L334.443 206.369L328.146 209.781Z" fill="url(#paint7_linear_1026_241)"/>
<path d="M318.234 213.113L320.59 225.382L327.618 224.041L325.262 211.772L318.234 213.113Z" fill="url(#paint8_linear_1026_241)"/>
<path d="M303.852 291.072V299.929L265.34 299.604V295.785L303.852 291.072Z" fill="#0C2F3D"/>
<path d="M310.556 209.822L344.477 191.216C346.996 195.847 345.33 201.616 340.699 204.175L323.515 213.641C318.884 216.119 313.115 214.454 310.556 209.822Z" fill="#0C2F3D"/>
<path d="M265.706 296.963H303.852C317.259 296.963 328.146 307.85 328.146 321.256H241.412C241.412 307.85 252.259 296.963 265.706 296.963Z" fill="url(#paint9_linear_1026_241)"/>
<path opacity="0.1" d="M434.478 281.975L445.273 265.489L438.607 320.841H436.479L434.478 281.975Z" fill="#434A54" stroke="#434A54" stroke-width="0.911765"/>
<path opacity="0.1" d="M425.786 203.472L425.786 203.472L425.786 203.472L425.787 203.472L426.171 203.348L426.094 202.951L424.402 194.229L435.041 196.899L435.408 196.991L435.566 196.647L446.854 172.143L436.829 199.653L425.881 195.743L425.099 195.464L425.283 196.273L427.238 204.878C427.218 204.889 427.196 204.902 427.173 204.914C426.939 205.045 426.603 205.235 426.192 205.471C425.371 205.942 424.25 206.597 423.052 207.331C420.676 208.787 417.932 210.594 416.665 211.902L416.664 211.904C415.268 213.362 412.755 217.008 410.615 220.245C409.982 221.203 409.378 222.131 408.841 222.962C411.836 215.481 415.71 210.746 418.992 207.822C420.898 206.123 422.608 205.032 423.836 204.367C424.45 204.035 424.943 203.809 425.28 203.668C425.449 203.597 425.578 203.547 425.664 203.515C425.707 203.499 425.739 203.488 425.759 203.481L425.781 203.473L425.786 203.472Z" fill="#434A54" stroke="#434A54" stroke-width="0.911765"/>
<path d="M296.529 248.043L283.718 253.417L284.032 254.167L296.844 248.793L296.529 248.043Z" fill="#0C2F3D"/>
<path d="M297.407 254.106L283.717 259.478L284.013 260.235L297.703 254.862L297.407 254.106Z" fill="#0C2F3D"/>
<path d="M296.253 261.806L285.376 264.69L285.584 265.476L296.461 262.592L296.253 261.806Z" fill="#0C2F3D"/>
<path d="M416.83 196.497L415.774 195.888C415.937 195.644 430.887 171.472 446.243 158.147L447.055 159.082C431.862 172.244 416.993 196.253 416.83 196.497Z" fill="#0C2F3D"/>
<path opacity="0.1" d="M453.395 196.329C453.179 195.986 452.974 195.674 452.784 195.395C453.422 195.786 454.182 196.304 454.992 196.982C457.229 198.855 459.862 201.951 461.376 206.948C464.26 216.463 463.12 232.985 447.193 261.227L457.437 232.889L457.443 232.874L457.447 232.859C460.929 220.571 459.447 210.775 457.083 204.044C455.902 200.681 454.503 198.086 453.395 196.329Z" fill="#434A54" stroke="#434A54" stroke-width="0.911765"/>
<path opacity="0.1" d="M414.472 164.76C416.805 162.341 419.726 158.596 422.157 153.295C422.091 154.391 421.963 155.813 421.722 157.451C421.177 161.141 420.052 165.907 417.746 170.48L414.472 164.76Z" fill="#434A54" stroke="#434A54" stroke-width="0.911765"/>
<path d="M445.593 266.088L444.496 265.56C458.024 236.635 458.999 218.801 457.415 208.929C455.709 198.326 450.834 194.426 450.752 194.385L451.484 193.41C451.687 193.572 456.765 197.554 458.552 208.563C460.218 218.679 459.284 236.797 445.593 266.088Z" fill="#0C2F3D"/>
<g clip-path="url(#clip0_1026_241)">
<path d="M534 326H164V481H534V326Z" fill="#8B969F"/>
<path d="M180 326H115V481H180V326Z" fill="#C0C6CB"/>
<path d="M565.477 316.625H163.899V334.906H565.477V316.625Z" fill="url(#paint10_linear_1026_241)"/>
<path d="M169.587 316.584H78.1805V335.069H169.587V316.584Z" fill="url(#paint11_linear_1026_241)"/>
</g>
<path d="M56.243 183.944L62.418 275.025C62.6617 278.885 65.9118 281.932 69.8118 281.932H212.243C216.509 281.932 219.921 278.316 219.637 274.05L213.421 182.969C213.177 179.11 209.927 176.063 206.027 176.063H63.5961C59.3711 176.063 55.9586 179.678 56.243 183.944Z" fill="#0C2F3D"/>
<path d="M128.027 275.431L121.893 316.828H152.037L158.171 275.431H128.027Z" fill="#0C2F3D"/>
<path d="M133.634 275.431L127.54 316.828H157.684L163.777 275.431H133.634Z" fill="url(#paint12_linear_1026_241)"/>
<path d="M221.424 281.931H78.993C75.093 281.931 71.8836 278.925 71.6399 275.025L70.9086 263.934L65.4649 183.944C65.1805 179.678 68.5524 176.062 72.8586 176.062H215.29C219.19 176.062 222.399 179.069 222.643 182.969L228.168 263.975L228.859 274.05C229.102 278.275 225.731 281.931 221.424 281.931Z" fill="url(#paint13_linear_1026_241)"/>
<path d="M78.5461 263.406L73.6305 190.525C73.3868 186.869 76.4336 183.74 80.293 183.74H208.993C212.487 183.74 215.412 186.34 215.655 189.672L220.652 263.406H78.5461Z" fill="white"/>
<path d="M116.002 310.694H89.7586V316.828H116.002V310.694Z" fill="#0C2F3D"/>
<path d="M189.087 310.694H114.256V316.828H189.087V310.694Z" fill="url(#paint14_linear_1026_241)"/>
<path d="M138.834 234.4C137.29 234.4 135.868 234.969 134.812 235.944L129.084 231.069C130.14 229.484 130.749 227.616 130.749 225.584C130.749 221.156 127.824 217.419 123.802 216.159L124.94 208.603C125.021 208.603 125.102 208.603 125.224 208.603C128.515 208.603 131.196 205.922 131.196 202.631C131.196 199.341 128.515 196.659 125.224 196.659C121.934 196.659 119.252 199.341 119.252 202.631C119.252 205.191 120.837 207.344 123.112 208.197L121.974 215.753C121.649 215.713 121.284 215.713 120.918 215.713C115.474 215.713 111.087 220.1 111.087 225.544C111.087 226.397 111.209 227.209 111.371 227.981L104.709 230.541C103.693 228.753 101.743 227.534 99.5492 227.534C96.2586 227.534 93.5774 230.216 93.5774 233.506C93.5774 236.797 96.2586 239.478 99.5492 239.478C102.84 239.478 105.521 236.797 105.521 233.506C105.521 233.1 105.481 232.694 105.399 232.288L112.021 229.728C113.606 233.059 116.977 235.375 120.918 235.375C123.64 235.375 126.118 234.278 127.906 232.491L133.634 237.366C133.146 238.219 132.862 239.234 132.862 240.291C132.862 243.581 135.543 246.263 138.834 246.263C142.124 246.263 144.806 243.581 144.806 240.291C144.806 237.081 142.124 234.4 138.834 234.4Z" fill="url(#paint15_linear_1026_241)"/>
<path d="M123.071 243.947C122.909 244.313 122.909 244.719 123.03 245.084L121.284 245.938C120.999 245.531 120.634 245.166 120.146 244.963C119.09 244.516 117.912 244.841 117.18 245.653L115.474 244.597C115.474 244.556 115.474 244.556 115.515 244.516C115.84 243.744 115.474 242.809 114.702 242.484C113.93 242.159 112.996 242.525 112.671 243.297C112.346 244.069 112.712 245.003 113.484 245.328C114.093 245.572 114.784 245.45 115.23 244.963L116.937 246.019C116.896 246.1 116.855 246.181 116.815 246.263C116.246 247.563 116.855 249.066 118.155 249.634C118.359 249.716 118.562 249.797 118.765 249.797L118.684 251.666C118.155 251.747 117.668 252.072 117.424 252.6C117.099 253.372 117.465 254.306 118.237 254.631C119.009 254.956 119.943 254.591 120.268 253.819C120.593 253.047 120.227 252.113 119.455 251.788C119.374 251.747 119.252 251.706 119.171 251.706L119.252 249.878C120.227 249.838 121.121 249.269 121.527 248.334C121.812 247.684 121.812 246.994 121.568 246.384L123.315 245.531C123.477 245.734 123.68 245.897 123.924 246.019C124.696 246.344 125.63 245.978 125.955 245.206C126.28 244.434 125.915 243.5 125.143 243.175C124.33 242.809 123.396 243.175 123.071 243.947Z" fill="url(#paint16_linear_1026_241)"/>
<path d="M105.115 206.409C104.587 206.612 104.18 206.978 103.977 207.425L101.459 206.531C101.621 205.881 101.58 205.15 101.337 204.5C100.768 202.997 99.3461 202.144 97.843 202.225L97.2742 199.544C97.3149 199.544 97.3148 199.544 97.3555 199.503C98.4523 199.097 99.0211 197.837 98.6149 196.741C98.2086 195.644 96.9492 195.075 95.8524 195.481C94.7555 195.887 94.1867 197.147 94.593 198.244C94.918 199.097 95.7305 199.625 96.5836 199.625L97.1523 202.306C97.0305 202.347 96.9086 202.387 96.7868 202.428C94.9586 203.119 94.0242 205.15 94.7148 206.978C94.8367 207.262 94.9586 207.506 95.1211 207.75L93.2117 209.456C92.643 208.969 91.8305 208.806 91.0993 209.091C90.0024 209.497 89.4336 210.756 89.8398 211.853C90.2461 212.95 91.5055 213.519 92.6024 213.112C93.6992 212.706 94.268 211.447 93.8617 210.35C93.8211 210.228 93.7398 210.066 93.6586 209.944L95.568 208.278C96.5024 209.212 97.9242 209.537 99.2649 209.05C100.199 208.725 100.849 208.034 101.256 207.181L103.774 208.116C103.734 208.481 103.734 208.847 103.896 209.212C104.302 210.309 105.562 210.878 106.659 210.472C107.755 210.066 108.324 208.806 107.918 207.709C107.512 206.612 106.252 205.962 105.115 206.409Z" fill="url(#paint17_linear_1026_241)"/>
<path d="M205.743 206.531H172.43V208.156H205.743V206.531Z" fill="url(#paint18_linear_1026_241)"/>
<path d="M206.555 216.281H154.149V217.906H206.555V216.281Z" fill="url(#paint19_linear_1026_241)"/>
<path d="M207.368 226.235H156.18V227.86H207.368V226.235Z" fill="url(#paint20_linear_1026_241)"/>
<path d="M207.774 236.391H158.212V238.016H207.774V236.391Z" fill="url(#paint21_linear_1026_241)"/>
<path d="M239.381 287.212V310.775C239.381 311.831 238.934 312.806 238.243 313.497C237.552 314.187 236.577 314.634 235.521 314.634C233.409 314.634 231.702 312.928 231.702 310.816V287.212L232.434 287.253H239.381V287.212Z" fill="url(#paint22_linear_1026_241)"/>
<path d="M241.696 256.866H229.427V263.081H231.012V310.775C231.012 313.294 233.043 315.325 235.562 315.325C236.78 315.325 237.918 314.838 238.771 313.984C239.624 313.131 240.112 311.994 240.112 310.775V263.081H241.696V256.866ZM238.69 310.775C238.69 311.588 238.365 312.4 237.796 312.969C237.227 313.538 236.415 313.863 235.602 313.863C233.896 313.863 232.515 312.481 232.515 310.775V263.081H238.73V310.775H238.69ZM240.274 261.619H230.89V258.328H240.274V261.619Z" fill="url(#paint23_linear_1026_241)"/>
<path d="M235.237 289.934H233.774V293.55H235.237V289.934Z" fill="#4568F9"/>
<path d="M260.099 287.212V310.775C260.099 311.831 259.652 312.806 258.962 313.497C258.271 314.187 257.296 314.634 256.24 314.634C254.127 314.634 252.421 312.928 252.421 310.816V287.212L253.152 287.253H260.099V287.212Z" fill="url(#paint24_linear_1026_241)"/>
<path d="M262.415 256.866H250.146V263.081H251.73V310.775C251.73 313.294 253.762 315.325 256.28 315.325C257.499 315.325 258.637 314.838 259.49 313.984C260.343 313.131 260.831 311.994 260.831 310.775V263.081H262.415V256.866ZM259.409 310.775C259.409 311.588 259.084 312.4 258.515 312.969C257.946 313.538 257.134 313.863 256.321 313.863C254.615 313.863 253.234 312.481 253.234 310.775V263.081H259.449V310.775H259.409ZM260.993 261.619H251.609V258.328H260.993V261.619Z" fill="url(#paint25_linear_1026_241)"/>
<path d="M255.956 289.934H254.493V293.55H255.956V289.934Z" fill="url(#paint26_linear_1026_241)"/>
<path d="M279.355 287.212V310.775C279.355 311.831 278.909 312.806 278.218 313.497C277.527 314.187 276.552 314.634 275.496 314.634C273.384 314.634 271.677 312.928 271.677 310.816V287.212L272.409 287.253H279.355V287.212Z" fill="url(#paint27_linear_1026_241)"/>
<path d="M281.631 256.866H269.362V263.081H270.946V310.775C270.946 313.294 272.977 315.325 275.496 315.325C276.715 315.325 277.852 314.838 278.706 313.984C279.559 313.131 280.046 311.994 280.046 310.775V263.081H281.631V256.866ZM278.624 310.775C278.624 311.588 278.299 312.4 277.73 312.969C277.162 313.538 276.349 313.863 275.537 313.863C273.831 313.863 272.449 312.481 272.449 310.775V263.081H278.665V310.775H278.624ZM280.209 261.619H270.824V258.328H280.209V261.619Z" fill="url(#paint28_linear_1026_241)"/>
<path d="M275.171 289.934H273.709V293.55H275.171V289.934Z" fill="url(#paint29_linear_1026_241)"/>
<path d="M288.74 316.625H285.571V281.769H223.821V316.625H220.652V276.772H288.74V316.625Z" fill="url(#paint30_linear_1026_241)"/>
<path d="M214.518 290.544V313.091C214.518 314.675 213.259 315.935 211.674 315.935H182.749C181.165 315.935 179.905 314.675 179.905 313.091V290.544H214.518Z" fill="url(#paint31_linear_1026_241)"/>
<path d="M221.018 271.572C220.693 271.044 220.124 270.719 219.515 270.719H182.709C180.759 270.719 179.134 272.303 179.134 274.294V313.091C179.134 315.041 180.718 316.666 182.709 316.666H211.634C213.584 316.666 215.209 315.081 215.209 313.091V284.166L221.059 273.278C221.343 272.75 221.343 272.1 221.018 271.572ZM219.799 272.588L213.787 283.8V313.091C213.787 314.269 212.852 315.203 211.674 315.203H182.749C181.571 315.203 180.637 314.269 180.637 313.091V306.469H184.252V305.006H180.637V301.756H184.252V300.294H180.637V296.678H184.252V295.216H180.637V291.234H184.252V289.772H180.637V285.791H184.252V284.328H180.637V280.347H184.252V278.884H180.637V274.253C180.637 273.075 181.571 272.141 182.749 272.141H219.555C219.718 272.141 219.759 272.222 219.799 272.262C219.799 272.344 219.84 272.466 219.799 272.588Z" fill="url(#paint32_linear_1026_241)"/>
<path d="M491.662 245.247C491.662 245.247 488.331 235.213 479.596 230.5C479.596 230.5 470.212 226.763 468.546 224.285C468.546 224.285 480.287 239.885 491.662 245.247Z" fill="url(#paint33_linear_1026_241)"/>
<path d="M496.943 299.888H499.624C499.624 299.888 501.981 264.706 510.024 245.938C511.365 242.769 512.34 238.584 517.296 234.238C524.08 228.266 537.649 219.734 563.974 212.747L580.509 207.466L580.712 207.384C580.712 207.384 574.334 203.688 570.312 204.378C570.312 204.378 557.231 196.659 549.877 204.703C549.877 204.703 535.131 201.372 531.799 209.375C531.799 209.375 509.699 208.034 515.062 232.166C515.021 232.166 502.631 240.575 496.943 299.888Z" fill="url(#paint34_linear_1026_241)"/>
<path d="M495.359 295.175C495.359 295.175 494.018 265.681 492.027 256.988C492.027 256.988 486.99 243.906 478.296 237.894C478.296 237.894 467.571 230.541 468.262 223.838C468.262 223.838 475.615 234.563 487.681 239.235C487.681 239.235 507.099 249.269 495.034 262.025L497.024 296.881L495.359 295.175Z" fill="url(#paint35_linear_1026_241)"/>
<path d="M517.256 234.238C524.04 228.266 537.609 219.735 563.934 212.747L580.468 207.466C574.334 206.938 564.015 206.897 558.571 211.407C558.571 211.407 539.152 207.385 531.759 220.1C530.702 221.888 527.737 222.091 523.715 222.091C519.977 222.132 515.631 222.7 517.256 234.238Z" fill="url(#paint36_linear_1026_241)"/>
<path d="M516.687 283.11L510.187 316.625H482.196L475.696 283.11H516.687Z" fill="url(#paint37_linear_1026_241)"/>
<path opacity="0.1" d="M487.29 283.566L492.348 316.169H482.572L476.249 283.566H487.29Z" fill="#434A54" stroke="#434A54" stroke-width="0.911765"/>
<g clip-path="url(#clip1_1026_241)">
<path d="M266.753 27.8905C265.987 27.1248 264.748 27.1258 263.983 27.8905C263.524 28.3486 262.965 28.6733 262.237 28.9149L254.64 21.3184C254.882 20.5904 255.212 20.0394 255.672 19.5795C256.437 18.8147 256.438 17.5751 255.672 16.8094C254.906 16.0437 253.667 16.0442 252.901 16.8094C250.867 18.8439 250.274 21.3648 250.16 26.045C250.148 26.5725 250.348 27.0828 250.717 27.4605C251.085 27.8383 251.591 28.0526 252.119 28.0526H252.3C253.274 28.0526 254.066 27.2663 254.074 26.2921L257.263 29.4811C256.323 29.4989 255.292 29.5035 254.067 29.4926L250.144 29.439C245.293 29.3625 238.071 28.8996 233.497 33.4731C230.486 36.4852 229.603 40.9735 229.42 45.6235C229.399 46.1511 229.595 46.6642 229.96 47.0449C230.326 47.4252 230.831 47.6418 231.359 47.6418H231.401C232.448 47.6418 233.304 46.8119 233.339 45.7656C233.369 44.866 233.428 43.9884 233.524 43.1414C235.143 44.7607 238.436 48.0535 240.426 50.0435C238.052 50.297 235.565 50.2056 233.39 50.1731L229.471 50.1185C221.683 50.0395 219.374 50.337 216.842 52.8684C216.077 53.6336 216.076 54.8732 216.842 55.6389C217.608 56.4046 218.848 56.4041 219.613 55.6389C220.116 55.1352 220.632 54.7829 221.371 54.5365L228.962 62.1273C228.715 62.8604 228.386 63.4875 227.924 63.9498C227.158 64.7145 227.158 65.9546 227.924 66.7203C228.689 67.4855 229.929 67.485 230.694 66.7203C232.786 64.6275 233.379 61.2635 233.483 57.4715C233.497 56.9477 233.299 56.4408 232.934 56.0655C232.569 55.6901 232.068 55.4772 231.544 55.4772H231.323C230.366 55.4772 229.588 56.2467 229.578 57.2032L226.408 54.0325C227.308 54.0224 228.331 54.0254 229.525 54.0377L233.445 54.0914C238.316 54.1656 245.528 54.6265 250.09 50.0651C253.287 46.8675 254.067 41.3466 254.159 36.8295C254.182 35.7299 253.302 34.8223 252.202 34.8223C251.143 34.8223 250.268 35.6669 250.253 36.7266C250.241 37.5453 250.2 39.3747 250.098 40.3236C248.06 38.2862 245.663 35.8888 243.253 33.4789C245.606 33.235 248.061 33.3244 250.2 33.3579L254.122 33.4125C260.973 33.4757 264.246 33.1686 266.754 30.6611C267.518 29.8957 267.518 28.6561 266.753 27.8905ZM248.997 44.7635C248.555 45.7598 248.005 46.6086 247.318 47.2954C246.609 48.0042 245.761 48.516 244.849 48.9272L234.629 38.7061C235.043 37.7778 235.57 36.9414 236.267 36.244C236.995 35.5155 237.868 34.9901 238.807 34.5739C242.213 37.9796 246.139 41.9056 248.997 44.7635Z" fill="white"/>
</g>
<path d="M94.1967 416.981C101.438 412.003 105.48 409.025 104.947 408.003C104.236 406.58 95.9292 409.025 80.0257 415.337C104.636 392.757 95.2184 394.224 65.366 410.358C91.709 377.555 93.7969 374.133 92.9084 373.111C90.8205 370.666 71.1855 383.023 58.9247 397.068C73.4955 368.355 77.9378 359.776 76.9161 359.065C75.4057 357.998 53.1497 369.999 43.8208 401.735C42.3548 394.89 40.1781 386.534 37.8237 386.623C35.7802 386.712 32.0931 395.602 32.9815 410.225C22.2311 397.824 22.8975 402.98 30.0496 417.87C24.4079 416.626 22.6754 416.892 22.1867 418.137C20.2765 423.026 40.8444 424.582 57.1922 424.582C67.6316 424.582 104.458 422.137 104.148 418.27C104.059 416.226 96.1958 416.715 94.1967 416.981Z" fill="#3FDA26"/>
<path d="M62.5673 377.467C52.1279 392.579 46.2196 407.869 43.4654 424.182C43.6875 424.182 43.9096 424.226 44.1317 424.226C46.886 407.781 53.0163 392.49 63.1004 377.822C63.3669 377.422 62.8339 377.067 62.5673 377.467Z" fill="white"/>
<path d="M85.6675 406.002C86.0673 405.78 85.7119 405.247 85.3121 405.469C76.7828 410.358 68.8311 416.137 60.6572 424.493C60.9682 424.493 61.3236 424.493 61.679 424.449C66.5211 420.182 71.8963 413.87 85.6675 406.002Z" fill="white"/>
<path d="M37.1129 401.869C37.1129 401.425 36.4465 401.469 36.4465 401.914C36.2244 410.092 37.6015 418.36 39.4229 423.871C39.645 423.871 39.9116 423.916 40.1337 423.916C38.2679 418.359 36.8907 410.092 37.1129 401.869Z" fill="white"/>
<path d="M51.2839 424.449C57.1033 410.759 64.2554 400.58 73.3177 391.512C73.6287 391.201 73.1844 390.757 72.8291 391.068C63.8112 400.047 56.8812 409.692 50.5731 424.404C50.7952 424.449 51.0173 424.449 51.2839 424.449Z" fill="white"/>
<path d="M55.4152 390.357C55.1042 390.357 54.971 389.912 55.2375 389.735C56.6146 388.801 58.125 388.09 59.7242 387.645C60.1684 387.512 60.3461 388.179 59.9019 388.312C56.9256 389.112 55.7261 390.357 55.4152 390.357Z" fill="white"/>
<path d="M48.9294 404.758C48.6185 404.758 48.4852 404.358 48.7073 404.135C50.1288 403.069 51.5948 402.046 53.194 401.069C53.5938 400.846 53.9047 401.424 53.5494 401.646C49.8623 403.869 49.2848 404.758 48.9294 404.758Z" fill="white"/>
<path d="M64.9218 400.891C64.5664 400.891 64.4331 400.358 64.833 400.224C66.2101 399.78 67.6316 399.558 69.0087 399.602C69.1864 399.602 69.3197 399.78 69.3197 399.958C69.3197 400.135 69.142 400.313 68.9643 400.269C66.6098 400.224 65.1439 400.891 64.9218 400.891Z" fill="white"/>
<path d="M57.8585 411.292C57.4587 411.292 57.4143 410.759 57.7697 410.625C59.4133 410.092 61.1014 409.736 62.8339 409.559C63.0116 409.559 63.1892 409.692 63.1892 409.87C63.1892 410.048 63.056 410.225 62.8783 410.225C59.7687 410.536 58.125 411.292 57.8585 411.292Z" fill="white"/>
<path d="M52.3055 421.782C51.9946 421.782 51.8614 421.382 52.1279 421.16C53.6827 420.004 55.3708 418.937 57.0589 417.959C57.4588 417.737 57.7697 418.315 57.4143 418.537C53.5938 420.76 52.6165 421.782 52.3055 421.782Z" fill="white"/>
<path d="M81.4917 411.647C81.2696 411.647 79.7147 411.025 77.3159 411.292C76.8716 411.336 76.7828 410.67 77.227 410.625C78.6486 410.447 80.1145 410.581 81.5805 410.981C81.9803 411.07 81.8915 411.647 81.4917 411.647Z" fill="white"/>
<path d="M72.2515 419.604C72.0739 419.604 70.4302 419.026 67.7648 418.759C67.3206 418.715 67.4094 418.048 67.8537 418.093C69.4529 418.27 70.9633 418.537 72.3848 418.937C72.7402 419.026 72.6514 419.604 72.2515 419.604Z" fill="white"/>
<path d="M37.868 415.514C37.6459 415.514 37.4683 415.248 37.5571 415.025C38.2679 413.425 39.1119 411.914 40.0448 410.492C40.3114 410.136 40.8445 410.492 40.6224 410.847C38.1346 414.492 38.4011 415.514 37.868 415.514Z" fill="white"/>
<path d="M39.334 422.315C39.1119 422.315 38.9342 422.093 39.0231 421.871C39.5117 420.404 40.178 419.026 40.9332 417.693C41.1553 417.293 41.7329 417.648 41.5108 418.048C39.5561 421.382 39.9115 422.315 39.334 422.315Z" fill="white"/>
<path d="M92.5086 482.632H35.6025C30.405 482.632 26.1404 478.409 26.1404 473.164V422.36H101.971V473.164C101.971 478.409 97.7505 482.632 92.5086 482.632Z" fill="#DFDFDF"/>
<defs>
<linearGradient id="paint0_linear_1026_241" x1="289" y1="481.477" x2="289" y2="170.579" gradientUnits="userSpaceOnUse">
<stop stop-color="#D3E9FE"/>
<stop offset="1" stop-color="#E9F6FF"/>
</linearGradient>
<linearGradient id="paint1_linear_1026_241" x1="350.196" y1="169.511" x2="371.316" y2="169.511" gradientUnits="userSpaceOnUse">
<stop stop-color="#588AFD"/>
<stop offset="1" stop-color="#4D71D9"/>
</linearGradient>
<linearGradient id="paint2_linear_1026_241" x1="347.74" y1="233.936" x2="390.4" y2="285.128" gradientUnits="userSpaceOnUse">
<stop stop-color="#DCE9FF"/>
<stop offset="1" stop-color="#B6D2FF"/>
</linearGradient>
<linearGradient id="paint3_linear_1026_241" x1="265.348" y1="234.664" x2="360.706" y2="234.664" gradientUnits="userSpaceOnUse">
<stop stop-color="#588AFD"/>
<stop offset="1" stop-color="#4D71D9"/>
</linearGradient>
<linearGradient id="paint4_linear_1026_241" x1="274.318" y1="257.959" x2="293.378" y2="257.959" gradientUnits="userSpaceOnUse">
<stop stop-color="#588AFD"/>
<stop offset="1" stop-color="#4D71D9"/>
</linearGradient>
<linearGradient id="paint5_linear_1026_241" x1="338.295" y1="206.572" x2="352.197" y2="206.572" gradientUnits="userSpaceOnUse">
<stop stop-color="#588AFD"/>
<stop offset="1" stop-color="#4D71D9"/>
</linearGradient>
<linearGradient id="paint6_linear_1026_241" x1="424.529" y1="168.204" x2="423.716" y2="312.829" gradientUnits="userSpaceOnUse">
<stop stop-color="#DCE9FF"/>
<stop offset="1" stop-color="#B6D2FF"/>
</linearGradient>
<linearGradient id="paint7_linear_1026_241" x1="328.143" y1="213.568" x2="340.358" y2="213.568" gradientUnits="userSpaceOnUse">
<stop stop-color="#588AFD"/>
<stop offset="1" stop-color="#4D71D9"/>
</linearGradient>
<linearGradient id="paint8_linear_1026_241" x1="318.244" y1="218.566" x2="327.601" y2="218.566" gradientUnits="userSpaceOnUse">
<stop stop-color="#588AFD"/>
<stop offset="1" stop-color="#4D71D9"/>
</linearGradient>
<linearGradient id="paint9_linear_1026_241" x1="241.399" y1="309.119" x2="328.143" y2="309.119" gradientUnits="userSpaceOnUse">
<stop stop-color="#588AFD"/>
<stop offset="1" stop-color="#4D71D9"/>
</linearGradient>
<linearGradient id="paint10_linear_1026_241" x1="163.899" y1="325.769" x2="565.477" y2="325.769" gradientUnits="userSpaceOnUse">
<stop stop-color="#2B233C"/>
<stop offset="1" stop-color="#635C70"/>
</linearGradient>
<linearGradient id="paint11_linear_1026_241" x1="78.1805" y1="325.847" x2="169.587" y2="325.847" gradientUnits="userSpaceOnUse">
<stop stop-color="#2B233C"/>
<stop offset="1" stop-color="#635C70"/>
</linearGradient>
<linearGradient id="paint12_linear_1026_241" x1="127.52" y1="296.135" x2="163.797" y2="296.135" gradientUnits="userSpaceOnUse">
<stop stop-color="#588AFD"/>
<stop offset="1" stop-color="#4D71D9"/>
</linearGradient>
<linearGradient id="paint13_linear_1026_241" x1="65.4385" y1="228.989" x2="228.832" y2="228.989" gradientUnits="userSpaceOnUse">
<stop stop-color="#588AFD"/>
<stop offset="1" stop-color="#4D71D9"/>
</linearGradient>
<linearGradient id="paint14_linear_1026_241" x1="114.235" y1="313.763" x2="189.085" y2="313.763" gradientUnits="userSpaceOnUse">
<stop stop-color="#588AFD"/>
<stop offset="1" stop-color="#4D71D9"/>
</linearGradient>
<linearGradient id="paint15_linear_1026_241" x1="93.618" y1="221.535" x2="144.806" y2="221.535" gradientUnits="userSpaceOnUse">
<stop stop-color="#E3356F"/>
<stop offset="1" stop-color="#E882AC"/>
</linearGradient>
<linearGradient id="paint16_linear_1026_241" x1="115.318" y1="253.441" x2="120.57" y2="241.199" gradientUnits="userSpaceOnUse">
<stop stop-color="#E4EDFF"/>
<stop offset="1" stop-color="#C7D8FF"/>
</linearGradient>
<linearGradient id="paint17_linear_1026_241" x1="88.3809" y1="207.765" x2="105.562" y2="201.341" gradientUnits="userSpaceOnUse">
<stop stop-color="#E4EDFF"/>
<stop offset="1" stop-color="#C7D8FF"/>
</linearGradient>
<linearGradient id="paint18_linear_1026_241" x1="172.43" y1="207.344" x2="205.743" y2="207.344" gradientUnits="userSpaceOnUse">
<stop stop-color="#588AFD"/>
<stop offset="1" stop-color="#4D71D9"/>
</linearGradient>
<linearGradient id="paint19_linear_1026_241" x1="154.149" y1="217.094" x2="206.555" y2="217.094" gradientUnits="userSpaceOnUse">
<stop stop-color="#588AFD"/>
<stop offset="1" stop-color="#4D71D9"/>
</linearGradient>
<linearGradient id="paint20_linear_1026_241" x1="156.18" y1="227.047" x2="207.368" y2="227.047" gradientUnits="userSpaceOnUse">
<stop stop-color="#588AFD"/>
<stop offset="1" stop-color="#4D71D9"/>
</linearGradient>
<linearGradient id="paint21_linear_1026_241" x1="158.212" y1="237.203" x2="207.774" y2="237.203" gradientUnits="userSpaceOnUse">
<stop stop-color="#588AFD"/>
<stop offset="1" stop-color="#4D71D9"/>
</linearGradient>
<linearGradient id="paint22_linear_1026_241" x1="235.433" y1="291.429" x2="235.839" y2="313.773" gradientUnits="userSpaceOnUse">
<stop stop-color="#588AFD"/>
<stop offset="1" stop-color="#4D71D9"/>
</linearGradient>
<linearGradient id="paint23_linear_1026_241" x1="235.488" y1="257.093" x2="237.113" y2="313.562" gradientUnits="userSpaceOnUse">
<stop stop-color="#62EBE6"/>
<stop offset="1" stop-color="#8AFCED"/>
</linearGradient>
<linearGradient id="paint24_linear_1026_241" x1="255.931" y1="288.08" x2="256.743" y2="312.862" gradientUnits="userSpaceOnUse">
<stop stop-color="#E3356F"/>
<stop offset="1" stop-color="#E882AC"/>
</linearGradient>
<linearGradient id="paint25_linear_1026_241" x1="256.247" y1="255.516" x2="256.789" y2="312.933" gradientUnits="userSpaceOnUse">
<stop stop-color="#62EBE6"/>
<stop offset="1" stop-color="#8AFCED"/>
</linearGradient>
<linearGradient id="paint26_linear_1026_241" x1="254.9" y1="339.371" x2="255.306" y2="280.261" gradientUnits="userSpaceOnUse">
<stop stop-color="#62EBE6"/>
<stop offset="1" stop-color="#8AFCED"/>
</linearGradient>
<linearGradient id="paint27_linear_1026_241" x1="275.134" y1="287.451" x2="275.946" y2="312.232" gradientUnits="userSpaceOnUse">
<stop stop-color="#E3356F"/>
<stop offset="1" stop-color="#E882AC"/>
</linearGradient>
<linearGradient id="paint28_linear_1026_241" x1="269.377" y1="286.106" x2="281.649" y2="286.106" gradientUnits="userSpaceOnUse">
<stop stop-color="#62EBE6"/>
<stop offset="1" stop-color="#8AFCED"/>
</linearGradient>
<linearGradient id="paint29_linear_1026_241" x1="273.725" y1="291.759" x2="275.176" y2="291.759" gradientUnits="userSpaceOnUse">
<stop stop-color="#62EBE6"/>
<stop offset="1" stop-color="#8AFCED"/>
</linearGradient>
<linearGradient id="paint30_linear_1026_241" x1="220.637" y1="296.715" x2="288.729" y2="296.715" gradientUnits="userSpaceOnUse">
<stop stop-color="#2F0A6E"/>
<stop offset="1" stop-color="#5B24B9"/>
</linearGradient>
<linearGradient id="paint31_linear_1026_241" x1="179.886" y1="303.221" x2="214.499" y2="303.221" gradientUnits="userSpaceOnUse">
<stop stop-color="#E3356F"/>
<stop offset="1" stop-color="#E882AC"/>
</linearGradient>
<linearGradient id="paint32_linear_1026_241" x1="179.161" y1="293.674" x2="221.279" y2="293.674" gradientUnits="userSpaceOnUse">
<stop stop-color="#62EBE6"/>
<stop offset="1" stop-color="#8AFCED"/>
</linearGradient>
<linearGradient id="paint33_linear_1026_241" x1="468.551" y1="234.765" x2="491.67" y2="234.765" gradientUnits="userSpaceOnUse">
<stop stop-color="#1C59EB"/>
<stop offset="1" stop-color="#6AF2ED"/>
</linearGradient>
<linearGradient id="paint34_linear_1026_241" x1="496.494" y1="289.049" x2="558.606" y2="196.999" gradientUnits="userSpaceOnUse">
<stop stop-color="#1C59EB"/>
<stop offset="1" stop-color="#6AF2ED"/>
</linearGradient>
<linearGradient id="paint35_linear_1026_241" x1="468.181" y1="260.335" x2="498.969" y2="260.335" gradientUnits="userSpaceOnUse">
<stop stop-color="#2F0A6E"/>
<stop offset="1" stop-color="#5B24B9"/>
</linearGradient>
<linearGradient id="paint36_linear_1026_241" x1="516.917" y1="220.719" x2="580.491" y2="220.719" gradientUnits="userSpaceOnUse">
<stop stop-color="#2F0A6E"/>
<stop offset="1" stop-color="#5B24B9"/>
</linearGradient>
<linearGradient id="paint37_linear_1026_241" x1="481.05" y1="299.881" x2="513.574" y2="299.881" gradientUnits="userSpaceOnUse">
<stop stop-color="#E3356F"/>
<stop offset="1" stop-color="#E882AC"/>
</linearGradient>
<clipPath id="clip0_1026_241">
<rect width="487" height="250" fill="white" transform="translate(78 317)"/>
</clipPath>
<clipPath id="clip1_1026_241">
<rect width="51.0588" height="51.0588" fill="white" transform="translate(216.269 16.2354)"/>
</clipPath>
</defs>
</svg>
