<svg width="47" height="47" viewBox="0 0 47 47" fill="none" xmlns="http://www.w3.org/2000/svg">
<path d="M7.58131 27.4451C6.49975 27.4451 5.62298 26.5683 5.62298 25.4867L5.62298 8.16348C5.62298 7.08192 6.49975 6.20515 7.58131 6.20515L28.9448 6.20515C30.0264 6.20515 30.9032 7.08192 30.9032 8.16348L30.9032 25.4867C30.9032 26.5683 30.0264 27.4451 28.9448 27.4451L7.58131 27.4451Z" fill="#FFE88F"/>
<path fill-rule="evenodd" clip-rule="evenodd" d="M4.64381 25.4868L4.64381 8.16356C4.64381 6.54122 5.95898 5.22606 7.58131 5.22606L28.9448 5.22606C30.5672 5.22606 31.8823 6.54122 31.8823 8.16356L31.8823 25.4868C31.8823 27.1092 30.5672 28.4243 28.9448 28.4243L7.58131 28.4243C5.95898 28.4243 4.64381 27.1092 4.64381 25.4868ZM5.62298 25.4868C5.62298 26.5684 6.49976 27.4451 7.58131 27.4451L28.9448 27.4451C30.0264 27.4451 30.9032 26.5684 30.9032 25.4868L30.9032 8.16356C30.9032 7.082 30.0264 6.20523 28.9448 6.20523L7.58131 6.20523C6.49976 6.20523 5.62298 7.082 5.62298 8.16356L5.62298 25.4868Z" fill="#D8BB4C"/>
<path fill-rule="evenodd" clip-rule="evenodd" d="M8.56047 16.4867C8.56047 16.2163 8.77967 15.9971 9.05006 15.9971H19.8209C20.0913 15.9971 20.3105 16.2163 20.3105 16.4867C20.3105 16.757 20.0913 16.9762 19.8209 16.9762H9.05006C8.77967 16.9762 8.56047 16.757 8.56047 16.4867Z" fill="#D8BB4C"/>
<path fill-rule="evenodd" clip-rule="evenodd" d="M8.56047 13.0594C8.56047 12.789 8.77967 12.5698 9.05006 12.5698H27.6542C27.9246 12.5698 28.1438 12.789 28.1438 13.0594C28.1438 13.3298 27.9246 13.549 27.6542 13.549H9.05006C8.77967 13.549 8.56047 13.3298 8.56047 13.0594Z" fill="#D8BB4C"/>
<path fill-rule="evenodd" clip-rule="evenodd" d="M8.56047 9.63241C8.56047 9.36202 8.77967 9.14282 9.05006 9.14282H27.6542C27.9246 9.14282 28.1438 9.36202 28.1438 9.63241C28.1438 9.9028 27.9246 10.122 27.6542 10.122H9.05006C8.77967 10.122 8.56047 9.9028 8.56047 9.63241Z" fill="#D8BB4C"/>
<path fill-rule="evenodd" clip-rule="evenodd" d="M5.62298 8.16366C5.62298 7.0821 6.49975 6.20532 7.58131 6.20532H18.3521C18.6225 6.20532 18.8417 6.42452 18.8417 6.69491C18.8417 6.9653 18.6225 7.18449 18.3521 7.18449H7.58131C7.04053 7.18449 6.60214 7.62288 6.60214 8.16366V13.5491C6.60214 13.8195 6.38295 14.0387 6.11256 14.0387C5.84217 14.0387 5.62298 13.8195 5.62298 13.5491V8.16366Z" fill="#FFF1BD"/>
<path d="M30.4599 20.673L35.6831 10.3376L40.9061 20.673C42.2119 23.2568 40.9061 28.4245 35.6831 28.4245C30.46 28.4245 29.1544 23.2568 30.4599 20.673Z" fill="#FC7E7E"/>
<path fill-rule="evenodd" clip-rule="evenodd" d="M35.6831 9.3584C36.0525 9.3584 36.3904 9.56626 36.557 9.89593L41.78 20.2313C41.78 20.2313 41.78 20.2313 41.78 20.2313C42.5887 21.8315 42.557 24.0988 41.6168 25.9592C40.6403 27.8915 38.6775 29.4036 35.6831 29.4036C32.6886 29.4036 30.7259 27.8915 29.7493 25.9592C28.8092 24.0988 28.7774 21.8316 29.5859 20.2313L34.8092 9.89591C34.9758 9.56625 35.3137 9.35839 35.6831 9.3584ZM40.9061 20.6729L35.6831 10.3376L30.4599 20.6729C29.1544 23.2567 30.46 28.4244 35.6831 28.4244C40.9061 28.4244 42.2118 23.2567 40.9061 20.6729Z" fill="#9F2828"/>
<path fill-rule="evenodd" clip-rule="evenodd" d="M31.8824 27.1369C32.7903 27.9154 34.0437 28.4245 35.6831 28.4245C40.9061 28.4245 42.2119 23.2568 40.9061 20.673L35.6831 10.3376L35.35 10.9969L39.9013 20.0031C41.207 22.5869 39.9012 27.7546 34.6783 27.7546C33.5759 27.7546 32.648 27.5244 31.8824 27.1369Z" fill="#E15252"/>
<path fill-rule="evenodd" clip-rule="evenodd" d="M35.5299 12.2278C35.781 12.3282 35.9031 12.6131 35.8027 12.8642L34.7979 15.3762C34.6974 15.6273 34.4125 15.7494 34.1615 15.649C33.9104 15.5485 33.7883 15.2636 33.8887 15.0126L34.8935 12.5005C34.994 12.2495 35.2789 12.1274 35.5299 12.2278Z" fill="#FFA6A6"/>
<path d="M35.683 22.3956C35.683 24.0604 34.5583 25.41 33.171 25.41C31.7836 25.41 30.6589 24.0604 30.6589 22.3956C30.6589 20.7307 31.7836 19.3811 33.171 19.3811C34.5583 19.3811 35.683 20.7307 35.683 22.3956Z" fill="#FFA6A6"/>
<path d="M11.3417 26.3665L15.2082 18.7158L19.0745 26.3665C20.0411 28.2791 19.0745 32.1045 15.2082 32.1045C11.3418 32.1045 10.3753 28.2791 11.3417 26.3665Z" fill="#FC7E7E"/>
<path fill-rule="evenodd" clip-rule="evenodd" d="M15.2082 17.7366C15.5776 17.7366 15.9155 17.9444 16.0821 18.2741L19.9484 25.9248C19.9484 25.9248 19.9484 25.9247 19.9484 25.9248C20.5875 27.1894 20.5557 28.9533 19.8276 30.3943C19.063 31.9071 17.5242 33.0835 15.2082 33.0835C12.8921 33.0835 11.3533 31.9071 10.5888 30.3943C9.86056 28.9533 9.8288 27.1895 10.4678 25.9248L14.3343 18.2741C14.5009 17.9444 14.8388 17.7366 15.2082 17.7366ZM19.0745 26.3664L15.2082 18.7157L11.3417 26.3664C10.3753 28.2791 11.3418 32.1044 15.2082 32.1044C19.0744 32.1044 20.041 28.2791 19.0745 26.3664Z" fill="#9F2828"/>
<path fill-rule="evenodd" clip-rule="evenodd" d="M12.3947 31.1513C13.0667 31.7276 13.9946 32.1045 15.2082 32.1045C19.0744 32.1045 20.041 28.2791 19.0744 26.3665L15.2082 18.7158L14.9615 19.2038L18.3306 25.8706C19.2972 27.7833 18.3306 31.6086 14.4643 31.6086C13.6483 31.6086 12.9614 31.4382 12.3947 31.1513Z" fill="#E15252"/>
<path fill-rule="evenodd" clip-rule="evenodd" d="M15.142 19.9966C15.3931 20.097 15.5152 20.3819 15.4148 20.633L14.671 22.4925C14.5705 22.7436 14.2856 22.8657 14.0346 22.7652C13.7835 22.6648 13.6614 22.3799 13.7618 22.1288L14.5056 20.2693C14.6061 20.0183 14.891 19.8962 15.142 19.9966Z" fill="#FFA6A6"/>
<path d="M15.2081 27.6416C15.2081 28.874 14.3756 29.873 13.3486 29.873C12.3216 29.873 11.489 28.874 11.489 27.6416C11.489 26.4092 12.3216 25.4102 13.3486 25.4102C14.3756 25.4102 15.2081 26.4092 15.2081 27.6416Z" fill="#FFA6A6"/>
<path fill-rule="evenodd" clip-rule="evenodd" d="M12.5387 26.3191C12.7897 26.4195 12.9118 26.7044 12.8114 26.9555C12.7544 27.098 12.6344 27.5684 12.7158 28.0568C12.7602 28.3235 12.5801 28.5758 12.3134 28.6202C12.0466 28.6647 11.7944 28.4845 11.7499 28.2178C11.633 27.5161 11.794 26.8626 11.9023 26.5918C12.0027 26.3408 12.2876 26.2187 12.5387 26.3191Z" fill="white"/>
<path d="M17.3925 28.3476L25.7798 11.7515L34.1667 28.3476C36.2635 32.4967 34.1667 40.7948 25.7798 40.7948C17.3927 40.7948 15.2962 32.4967 17.3925 28.3476Z" fill="#FC7E7E"/>
<path fill-rule="evenodd" clip-rule="evenodd" d="M25.7798 10.7722C26.1492 10.7722 26.4871 10.9801 26.6537 11.3097L35.0406 27.9059C36.2448 30.2888 36.2131 33.73 34.7785 36.5687C33.3077 39.4792 30.3562 41.7739 25.7798 41.7739C21.2033 41.7739 18.2518 39.4792 16.781 36.5687C15.3464 33.73 15.3146 30.2888 16.5185 27.906L24.9059 11.3097C25.0725 10.9801 25.4104 10.7722 25.7798 10.7722ZM17.3925 28.3476C15.2962 32.4966 17.3927 40.7947 25.7798 40.7947C34.1667 40.7947 36.2635 32.4966 34.1667 28.3476L25.7798 11.7514L17.3925 28.3476Z" fill="#9F2828"/>
<path fill-rule="evenodd" clip-rule="evenodd" d="M19.6766 38.7271C21.1345 39.9773 23.1473 40.7948 25.7798 40.7948C34.1667 40.7948 36.2635 32.4967 34.1667 28.3476L25.7798 11.7515L25.2448 12.81L32.5532 27.272C34.65 31.421 32.5532 39.7191 24.1663 39.7191C22.3961 39.7191 20.9061 39.3494 19.6766 38.7271Z" fill="#E15252"/>
<path fill-rule="evenodd" clip-rule="evenodd" d="M25.4237 15.0618C25.6747 15.1622 25.7968 15.4471 25.6964 15.6982L24.0829 19.7319C23.9825 19.983 23.6976 20.1051 23.4465 20.0047C23.1955 19.9043 23.0734 19.6193 23.1738 19.3683L24.7873 15.3345C24.8877 15.0834 25.1726 14.9613 25.4237 15.0618Z" fill="#FFA6A6"/>
<path d="M25.7797 31.1137C25.7797 33.7871 23.9737 35.9543 21.7459 35.9543C19.5181 35.9543 17.7121 33.7871 17.7121 31.1137C17.7121 28.4404 19.5181 26.2732 21.7459 26.2732C23.9737 26.2732 25.7797 28.4404 25.7797 31.1137Z" fill="#FFA6A6"/>
<path fill-rule="evenodd" clip-rule="evenodd" d="M19.7764 28.7766C20.0274 28.877 20.1495 29.1619 20.0491 29.413C19.8955 29.7971 19.6112 30.9246 19.8086 32.1088C19.853 32.3755 19.6728 32.6278 19.4061 32.6722C19.1394 32.7167 18.8872 32.5365 18.8427 32.2698C18.6098 30.8723 18.9351 29.5617 19.14 29.0493C19.2404 28.7983 19.5253 28.6762 19.7764 28.7766Z" fill="white"/>
</svg>
