<svg width="655" height="553" viewBox="0 0 655 553" fill="none" xmlns="http://www.w3.org/2000/svg">
<path d="M0 481.417L125.042 524.093C146.28 531.341 168.265 536.184 190.583 538.53L293.71 549.369C313.521 551.451 333.49 551.555 353.321 549.679L470.011 538.641C495.565 536.224 520.702 530.537 544.808 521.72L585.882 506.697C626.994 491.66 657.241 448.935 635.085 411.18C623.349 391.181 604.777 374.993 575.443 376.107C501.162 378.928 545.872 297.454 540.654 242.589C534.072 173.48 358.9 94.7322 296.654 244C259.984 331.915 212.5 311.229 176.77 302.296C156.507 297.219 124.115 318.751 129.287 370.936C137.514 454.008 110.011 459.791 71.4603 451.329C32.9093 442.866 0 481.417 0 481.417Z" fill="url(#paint0_linear_1078_1251)"/>
<path d="M133.518 0H510.33V259.514H133.518V8.83853" fill="url(#paint1_linear_1078_1251)"/>
<path opacity="0.4" d="M151.383 15.9846H528.195V275.498H151.383V24.8232" fill="url(#paint2_linear_1078_1251)"/>
<path d="M368.256 136.997C368.773 129.193 359.934 101.126 359.934 101.126C358.9 96.4247 358.383 74.0933 358.383 74.0933C358.383 65.772 352.647 65.2548 352.647 65.2548C344.843 63.7034 338.073 61.1176 338.073 61.1176C332.337 56.9804 337.039 48.6591 337.039 48.6591C341.74 43.4406 338.872 41.6541 338.872 41.6541C340.518 29.8538 332.902 27.5971 329.517 27.174V27.08C329.517 27.08 329.235 27.08 328.717 27.08C328.247 27.033 327.918 27.08 327.918 27.08V27.174C324.533 27.5971 316.917 29.8538 318.563 41.6541C318.563 41.6541 315.695 43.4876 320.396 48.6591C320.396 48.6591 325.097 56.9804 319.362 61.1176C319.362 61.1176 312.592 63.7034 304.788 65.2548C304.788 65.2548 299.052 65.772 299.052 74.0933C299.052 74.0933 298.535 96.4717 297.501 101.126C297.501 101.126 288.662 129.193 289.179 136.997C289.179 136.997 283.961 146.87 287.628 153.64C287.628 153.64 289.696 156.226 290.731 155.708C290.731 155.708 291.765 155.191 291.248 152.088C291.248 152.088 290.731 143.767 294.351 141.181L293.834 148.468C293.834 148.468 299.052 146.917 296.936 137.561C296.936 137.561 296.936 135.493 297.971 131.309C297.971 131.309 306.292 119.884 306.292 107.896L309.395 101.126L310.429 127.641C310.429 127.641 300.556 143.25 311.981 190.545C311.981 190.545 309.912 217.061 316.118 229.566C316.118 229.566 316.635 238.405 314.566 243.623C314.566 243.623 312.498 248.325 318.186 249.359H325.709C326.79 249.359 327.589 248.466 327.542 247.384C327.354 244.893 326.508 240.285 323.405 234.785C323.405 234.785 322.888 226.981 322.888 220.211C322.888 220.211 323.922 206.671 322.888 201.499C322.888 201.499 321.853 196.281 322.888 192.144L328.623 152.088V151.524V152.088L334.359 192.144C335.393 196.281 334.359 201.499 334.359 201.499C333.325 206.718 334.359 220.211 334.359 220.211C334.359 226.981 333.842 234.785 333.842 234.785C330.739 240.333 329.94 244.94 329.705 247.384C329.611 248.419 330.457 249.359 331.538 249.359H339.06C344.796 248.325 342.68 243.623 342.68 243.623C340.612 238.405 341.129 229.566 341.129 229.566C347.382 217.108 345.266 190.545 345.266 190.545C356.69 143.203 346.818 127.641 346.818 127.641L347.852 101.126L350.955 107.896C350.955 119.837 359.276 131.309 359.276 131.309C360.31 135.446 360.31 137.561 360.31 137.561C358.242 146.917 363.413 148.468 363.413 148.468L362.896 141.181C366.516 143.767 365.999 152.088 365.999 152.088C365.482 155.191 366.516 155.708 366.516 155.708C367.55 156.226 369.619 153.64 369.619 153.64C373.427 146.87 368.256 136.997 368.256 136.997Z" fill="white"/>
<path d="M351.989 45.6501H339.86V44.2397H351.378L378.411 17.207H387.954V18.6174H378.975L351.989 45.6501Z" fill="#050505"/>
<path d="M316.776 96.0014H304.694L277.661 68.9688H268.681V67.5583H278.272L305.258 94.591H316.776V96.0014Z" fill="#050505"/>
<path d="M370.136 89.9364H358.007V88.526H369.525L396.558 61.5403H406.101V62.9507H397.122L370.136 89.9364Z" fill="#050505"/>
<path d="M415.692 2.8208C415.645 2.8208 415.551 2.8208 415.504 2.8208V14.9032H427.963C427.822 8.1803 422.368 2.8208 415.692 2.8208Z" fill="#E3356F"/>
<path d="M412.636 17.4894V3.57349C404.926 3.66751 398.72 9.96723 398.72 17.7244C398.72 25.5287 405.067 31.8755 412.871 31.8755C420.676 31.8755 427.022 25.5287 427.022 17.7244C427.022 17.6304 427.022 17.5834 427.022 17.5364H412.636V17.4894Z" fill="white"/>
<path d="M470.651 55.8989H412.636V83.2608H470.651V55.8989Z" fill="white"/>
<path d="M444.511 58.2966H415.645V71.3664H444.511V58.2966Z" fill="#E3356F"/>
<path d="M444.511 72.7297H415.645V74.9393H444.511V72.7297Z" fill="#E3356F"/>
<path d="M430.971 76.3027H415.645V78.5123H430.971V76.3027Z" fill="#E3356F"/>
<path d="M468.441 76.3027H455.936V78.5123H468.441V76.3027Z" fill="#0895BE"/>
<path d="M453.585 76.3027H448.507V78.5123H453.585V76.3027Z" fill="#0895BE"/>
<path d="M468.3 58.2966H448.507V71.3664H468.3V58.2966Z" fill="#0895BE"/>
<path d="M258.432 45.979H187.771V90.9237H258.432V45.979Z" fill="white"/>
<path d="M199.431 68.4514H195.105V81.145H199.431V68.4514Z" fill="#E3356F"/>
<path d="M206.53 59.3308H202.204V81.192H206.53V59.3308Z" fill="#E3356F"/>
<path d="M213.676 68.3105H209.35V81.1922H213.676V68.3105Z" fill="#E3356F"/>
<path d="M250.863 55.7581H224.207V81.1922H250.863V55.7581Z" fill="#0994BC"/>
<path d="M247.76 59.4719H227.31V62.2457H247.76V59.4719Z" fill="white"/>
<path d="M247.76 64.1262H227.31V66.9001H247.76V64.1262Z" fill="white"/>
<path d="M247.76 68.4514H227.31V71.2252H247.76V68.4514Z" fill="white"/>
<path d="M247.76 72.8237H237.37V75.5976H247.76V72.8237Z" fill="white"/>
<path d="M279.353 223.219H234.08V160.221H279.353V223.219ZM235.443 221.809H277.896V161.632H235.443V221.809Z" fill="white"/>
<path d="M260.877 168.073H252.415V169.765H260.877V168.073Z" fill="white"/>
<path d="M271.173 172.492H242.495V174.184H271.173V172.492Z" fill="white"/>
<path d="M271.173 176.911H242.495V178.604H271.173V176.911Z" fill="white"/>
<path d="M271.173 181.565H242.495V183.258H271.173V181.565Z" fill="white"/>
<path d="M271.173 186.22H242.495V187.912H271.173V186.22Z" fill="white"/>
<path d="M271.173 190.874H242.495V192.567H271.173V190.874Z" fill="white"/>
<path d="M271.173 195.481H242.495V197.174H271.173V195.481Z" fill="white"/>
<path d="M271.173 200.135H242.495V201.828H271.173V200.135Z" fill="white"/>
<path d="M406.477 216.826L389.412 206.953V187.207L406.477 177.334L423.543 187.207V206.953L406.477 216.826ZM390.822 206.154L406.477 215.227L422.133 206.154V188.054L406.477 178.98L390.822 188.054V206.154Z" fill="white"/>
<path d="M390.117 245.034L373.051 235.161V215.415L390.117 205.542L407.183 215.415V235.161L390.117 245.034ZM374.461 234.362L390.117 243.435L405.772 234.362V216.262L390.117 207.188L374.461 216.262V234.362Z" fill="white"/>
<path d="M410.991 193.789H400.648V195.858H410.991V193.789Z" fill="white"/>
<path d="M410.991 197.926H400.648V199.995H410.991V197.926Z" fill="white"/>
<path d="M394.677 220.352H384.334V222.42H394.677V220.352Z" fill="white"/>
<path d="M394.677 224.489H384.334V226.557H394.677V224.489Z" fill="white"/>
<path d="M394.677 228.626H384.334V230.695H394.677V228.626Z" fill="white"/>
<path d="M114.337 395.759C107.049 427.352 99.9035 459.086 99.5273 463.411C99.2453 466.373 111.563 472.437 111.563 472.437L83.3077 471.826L92.3813 394.536L100.091 328.624H129.992C129.945 328.624 122.047 362.097 114.337 395.759Z" fill="#FCB9C0"/>
<path d="M82.5555 464.727L80.91 476.057C80.4869 478.878 82.6965 481.37 85.5173 481.37H126.09C127.171 481.37 127.5 479.912 126.56 479.442L108.225 470.275C108.037 470.181 107.802 470.134 107.614 470.181C105.169 470.604 89.4194 472.86 84.53 464.351C83.9659 463.552 82.6965 463.787 82.5555 464.727Z" fill="#173A49"/>
<path d="M162.76 472.39L134.505 471.779L135.681 393.925L136.668 328.624H166.568C166.568 328.624 162.995 358.43 159.234 390.023C155.238 423.402 151.101 458.803 150.678 463.364C150.49 466.326 162.76 472.39 162.76 472.39Z" fill="#FCB9C0"/>
<path d="M133.8 464.727L132.155 476.057C131.731 478.878 133.941 481.37 136.762 481.37H177.334C178.416 481.37 178.745 479.912 177.805 479.442L159.469 470.275C159.281 470.181 159.046 470.134 158.858 470.181C156.413 470.604 140.664 472.86 135.775 464.351C135.21 463.552 133.941 463.787 133.8 464.727Z" fill="#173A49"/>
<path d="M100.844 197.926L107.191 213.488L99.7154 242.26L81.6623 198.726C80.675 196.375 80.722 193.695 81.7563 191.392L100.515 148.845L109.118 129.428L112.973 180.673L106.673 189.652L100.844 197.926Z" fill="url(#paint3_linear_1078_1251)"/>
<path opacity="0.1" d="M166.052 329.124L165.958 329.907L165.502 333.715C165.108 337.003 164.544 341.716 163.862 347.417C162.508 358.74 160.69 373.958 158.823 389.641C153.211 391.369 144.719 393.435 136.188 393.428L137.16 329.124H166.052Z" fill="#434A54" stroke="#434A54"/>
<path opacity="0.1" d="M129.313 329.124L129.104 330.013C128.873 330.994 128.534 332.433 128.103 334.265C127.241 337.93 126.011 343.166 124.539 349.454C121.617 361.937 117.739 378.567 113.888 395.273C109.081 395.442 101.531 395.411 92.84 394.114L100.442 329.124H129.313Z" fill="#434A54" stroke="#434A54"/>
<path opacity="0.1" d="M108.722 131.45L112.414 180.485L106.694 188.638C99.7498 174.817 99.3106 160.548 100.953 148.984L108.722 131.45Z" fill="#434A54" stroke="#434A54"/>
<path d="M234.503 100.044L232.199 105.968L227.733 113.208L225.57 118.615L223.266 124.35L210.996 118.238L211.466 116.781L211.842 115.7L212.971 111.234C212.971 111.234 212.735 106.015 214.099 99.5271L215.133 88.62C215.133 88.62 219.834 92.3811 218.659 97.0354L224.959 84.2008L229.66 76.8667C229.66 76.8667 232.481 79.6875 229.425 85.3291L227.263 92.24C227.263 92.24 230.601 91.6759 230.601 94.4496C230.601 94.4496 233.374 95.0139 232.81 97.2235C232.857 97.2235 235.067 97.7877 234.503 100.044Z" fill="#FCB9C0"/>
<path opacity="0.1" d="M211.814 117.331L224.866 119.027L223.004 123.661L211.604 117.983L211.814 117.331Z" fill="#434A54" stroke="#434A54"/>
<path d="M141.792 69.8147C141.792 69.8147 162.948 109.823 132.907 106.767L135.116 134.552L114.478 136.668L110.764 93.1334C110.717 93.1334 105.874 64.1261 141.792 69.8147Z" fill="#FCB9C0"/>
<path d="M151.477 129.428C151.477 129.428 142.827 116.17 123.269 116.17C123.269 116.17 114.807 116.123 110.105 119.32C110.105 119.32 108.272 123.645 111.187 129.428H151.477Z" fill="#BBC6EB"/>
<path d="M228.015 124.256L220.305 164.782C219.505 169.013 215.274 171.693 211.137 170.612L162.995 158.2V221.527L183.728 381.043C183.728 381.043 117.533 400.601 54.7706 381.043C54.7706 381.043 95.061 237.653 108.883 184.669C108.883 184.669 94.4969 146.682 107.755 130.556C107.755 130.556 115.23 121.906 139.395 124.209C156.131 125.808 203.286 144.942 203.286 144.942L209.068 116.17L228.015 124.256Z" fill="url(#paint4_linear_1078_1251)"/>
<path d="M146.588 242.589L145.976 241.884C159.939 229.566 155.661 216.026 155.614 215.885L156.507 215.603C156.554 215.744 161.068 229.895 146.588 242.589Z" fill="#0C2F3D"/>
<path d="M130.556 59.9891C92.6633 52.655 99.1041 102.16 99.1041 102.16C81.4271 109.165 77.1019 120.636 75.7385 126.936C73.999 134.928 82.3673 151.994 103.711 149.455C122.752 147.152 121.247 118.709 120.683 112.597C121.906 118.427 123.551 131.355 117.58 141.98C117.58 141.98 125.479 133.142 123.034 110.011C134.505 102.536 131.872 94.0737 131.872 94.0737C131.872 94.0737 125.244 87.1628 129.71 83.4957C132.813 80.91 134.176 83.1666 134.74 84.7651C135.022 85.5643 135.68 86.1285 136.48 86.3165L136.997 86.4575C137.655 86.5985 138.266 86.0345 138.078 85.3763L137.232 81.8032C140.852 79.1234 142.168 73.5288 142.168 73.5288C142.168 73.5288 150.02 75.4094 149.926 65.9127C149.784 56.369 131.355 60.1771 130.556 59.9891Z" fill="#0C2F3D"/>
<path opacity="0.1" d="M154.78 156.76L162.495 158.864V209.943C160.227 198.379 157.455 181.192 154.78 156.76Z" fill="#434A54" stroke="#434A54"/>
<path d="M554.287 69.0151C554.287 69.0151 553.3 74.8918 552.313 78.8409C551.326 82.79 547.424 81.8027 547.424 81.8027L546.436 71.977L554.287 69.0151Z" fill="#002951"/>
<path d="M556.403 115.652H532.003C531.016 105.169 531.392 104.839 530.922 98.3516C530.781 96.6591 530.593 94.5435 530.311 91.7697C530.311 91.7227 530.311 91.7227 530.311 91.6757C510.847 98.2105 516.865 56.2277 516.865 56.2277C516.865 56.2277 520.203 45.4616 536.328 42.9229C552.501 40.4312 551.655 61.4931 551.655 61.4931C561.292 62.8565 551.185 75.127 550.573 76.1613L556.403 115.652Z" fill="#FFAAAD"/>
<path d="M549.962 38.0336C549.962 38.0336 538.115 23.2715 517.664 42.5469C515.831 44.2394 513.856 44.1924 509.719 46.6841C506.146 48.8467 506.24 54.1122 509.907 56.0868C515.407 59.0486 521.942 60.318 534.354 53.454C529.182 59.4247 519.827 60.1769 519.827 60.1769C538.538 60.1299 541.547 52.2787 541.782 52.0907C541.782 52.0907 540.701 60.694 546.906 66.7117C546.906 66.7117 547.094 64.5962 548.458 63.3268C550.197 61.6343 553.441 60.9291 555.463 64.032C555.51 63.938 564.019 41.6536 549.962 38.0336Z" fill="#0C2F3D"/>
<path d="M546.295 63.5617H538.021C537.034 61.6341 535.012 60.2708 532.708 60.2708C529.605 60.2708 527.02 62.6685 526.785 65.7243H523.494C523.212 62.6685 520.673 60.2708 517.57 60.2708C514.279 60.2708 511.599 62.9505 511.599 66.2414C511.599 69.5324 514.279 72.2122 517.57 72.2122C520.673 72.2122 523.259 69.8145 523.494 66.7586H526.785C527.067 69.8145 529.605 72.2122 532.708 72.2122C535.999 72.2122 538.679 69.5324 538.679 66.2414C538.679 65.6773 538.585 65.1602 538.444 64.643H546.295V63.5617ZM517.523 71.1309C514.843 71.1309 512.634 68.9212 512.634 66.2414C512.634 63.5617 514.843 61.3521 517.523 61.3521C520.203 61.3521 522.412 63.5617 522.412 66.2414C522.365 68.9212 520.203 71.1309 517.523 71.1309ZM532.708 71.1309C530.029 71.1309 527.819 68.9212 527.819 66.2414C527.819 63.5617 530.029 61.3521 532.708 61.3521C535.388 61.3521 537.598 63.5617 537.598 66.2414C537.598 68.9212 535.388 71.1309 532.708 71.1309Z" fill="#123245"/>
<path d="M527.255 449.212V469.428L507.039 468.488L507.885 460.73L509.39 447.332L527.255 449.212Z" fill="#FFAAAD"/>
<path d="M589.783 468.488H570.037V447.332L588.842 449.212L589.077 454.007L589.783 468.488Z" fill="#FFAAAD"/>
<path opacity="0.1" d="M509.831 447.881L526.755 449.662V455.912L508.461 460.086L509.831 447.881Z" fill="#434A54" stroke="#434A54"/>
<path opacity="0.1" d="M588.364 449.667L588.558 453.621C586.316 454.173 583.872 454.782 581.465 455.382C577.294 456.421 573.234 457.432 570.537 458.076V447.884L588.364 449.667Z" fill="#434A54" stroke="#434A54"/>
<path d="M593.073 453.444L585.551 295.949L583.201 239.063L505.159 244.704V295.949V335.44L503.748 455.794H530.076L542.628 301.685L567.686 453.444H593.073Z" fill="url(#paint5_linear_1078_1251)"/>
<path d="M434.638 143.626L426.458 152.887L420.676 148.703L418.842 148.891L414.329 149.314C408.076 150.49 395.664 145.506 393.925 143.343C392.091 141.087 395.147 139.865 395.147 139.865L388.989 137.044C388.471 136.809 388.095 136.433 387.86 135.915C386.826 133.612 390.023 133.048 390.023 133.048L386.121 130.556C385.698 130.321 385.416 129.945 385.227 129.475C384.757 128.299 385.086 127.453 385.557 126.936C386.168 126.325 387.108 126.137 387.907 126.419L390.446 127.312C389.788 126.184 390.023 125.478 390.493 125.008C391.057 124.444 391.95 124.303 392.75 124.632C397.498 126.748 420.534 136.809 414.987 130.744C414.846 130.603 414.752 130.509 414.658 130.368C408.922 123.88 411.884 120.025 411.884 120.025L421.71 130.039C426.364 133.847 428.104 138.971 428.527 140.335C428.621 140.57 428.621 140.664 428.621 140.664L434.638 143.626Z" fill="#FFAAAD"/>
<path opacity="0.1" d="M420.335 148.235L428.261 141.207L428.269 141.211L433.821 143.796L426.384 152.216L420.969 148.298L420.814 148.186L420.624 148.205L420.335 148.235Z" fill="#434A54" stroke="#434A54"/>
<path d="M533.131 212.5L558.002 100.279L557.531 99.1509C557.531 99.1509 551.937 111.656 539.713 112.362C531.251 112.832 529.652 101.784 529.652 101.784L530.123 114.242C530.123 114.242 529.935 139.112 530.499 147.387C531.157 157.212 533.131 212.5 533.131 212.5Z" fill="url(#paint6_linear_1078_1251)"/>
<path d="M530.123 101.407L496.32 119.037C493.546 120.495 491.384 122.939 490.255 125.854L475.775 164.546L430.642 136.338L418.419 158.905L476.951 203.144C481.558 206.623 488.187 205.26 491.008 200.276L498.342 187.395L490.067 365.293C490.067 365.293 502.056 372.345 513.809 374.226C526.409 376.247 534.495 374.226 534.495 374.226L537.551 259.983L561.104 372.815C561.104 372.815 572.106 373.756 583.859 371.875C591.945 370.559 603.84 365.293 603.84 365.293L583.624 172.539L594.484 200.559L617.05 196.844L595.706 122.798C595.001 120.307 593.309 118.144 591.005 116.875L554.287 96.377C554.287 96.377 545.59 131.872 543.004 143.719C541.077 152.558 534.072 202.627 534.072 202.627C534.072 202.627 530.781 156.084 530.217 144.519C529.7 133.611 530.123 101.407 530.123 101.407Z" fill="url(#paint7_linear_1078_1251)"/>
<path d="M507.509 463.786C507.509 463.786 517.852 474.599 527.255 461.436L530.546 481.651H481.464C479.348 481.651 478.596 478.831 480.429 477.796L507.509 463.786Z" fill="#143847"/>
<path d="M570.037 463.786C570.037 463.786 580.38 474.599 589.783 461.436L593.073 481.651H543.991C541.876 481.651 541.124 478.831 542.957 477.796L570.037 463.786Z" fill="#143847"/>
<path d="M538.021 113.725L533.602 110.481L525.609 119.884C525.609 119.884 522.789 103.006 530.076 98.4926L538.303 111.891C538.303 111.891 551.467 107.66 554.287 96.377C554.287 96.377 559.459 109.071 551.279 119.884L543.945 111.609L538.021 113.725Z" fill="#143847"/>
<path d="M625.513 188.288C625.513 188.288 622.222 230.6 598.715 216.026C594.061 213.158 588.372 202.392 586.962 192.049L625.513 188.288Z" fill="url(#paint8_linear_1078_1251)"/>
<path d="M624.572 188.288C624.572 188.288 621.987 200.041 612.255 194.635L615.64 188.288H624.572Z" fill="#F49FA6"/>
<path d="M583.06 174.419C586.072 174.419 588.513 171.978 588.513 168.966C588.513 165.954 586.072 163.512 583.06 163.512C580.048 163.512 577.606 165.954 577.606 168.966C577.606 171.978 580.048 174.419 583.06 174.419Z" fill="#A0A0A0"/>
<path d="M583.06 171.974C584.721 171.974 586.068 170.627 586.068 168.965C586.068 167.304 584.721 165.957 583.06 165.957C581.398 165.957 580.051 167.304 580.051 168.965C580.051 170.627 581.398 171.974 583.06 171.974Z" fill="#123245"/>
<path d="M584.188 168.354L582.307 168.307C583.248 133.611 575.302 116.264 568.438 107.801C561.151 98.7746 553.676 97.7873 553.582 97.7873L553.817 95.9067C554.146 95.9538 562.139 96.988 569.896 106.579C576.948 115.276 585.175 133.094 584.188 168.354Z" fill="#123245"/>
<path d="M566.981 194.635H618.696L635.15 122.234H583.436L566.981 194.635Z" fill="#143847"/>
<path d="M630.214 170.517C631.436 171.41 633.082 173.385 629.744 176.065C629.744 176.065 632.095 178.885 629.274 181.236C629.274 181.236 631.624 184.057 628.333 186.408C628.333 186.408 628.804 188.758 625.983 189.698H616.016C615.452 189.698 614.888 189.369 614.7 188.805C614.371 188.006 614.229 186.784 615.687 185.937C615.687 185.937 613.806 182.646 616.627 181.236C616.627 181.236 614.276 178.415 617.097 177.005C617.097 177.005 615.217 174.654 618.508 173.244C621.093 172.115 626.312 170.705 628.427 170.188C628.992 170 629.697 170.141 630.214 170.517Z" fill="#FFAAAD"/>
<path d="M516.724 183.493L522.789 181.659C525.515 180.813 527.114 177.992 526.456 175.219L521.425 154.533L519.639 154.956L524.669 175.642C525.092 177.475 524.058 179.309 522.271 179.873L516.207 181.706L516.724 183.493Z" fill="#A0A0A0"/>
<path d="M506.146 185.044L499.799 184.997C496.931 184.997 494.58 182.741 494.439 179.873L493.358 158.576L495.192 158.482L496.273 179.779C496.367 181.66 497.918 183.117 499.799 183.117L506.146 183.164V185.044Z" fill="#A0A0A0"/>
<path d="M518.51 181.988C518.745 182.881 518.228 183.869 517.335 184.104L515.783 184.527C514.89 184.762 513.903 184.245 513.668 183.351C513.433 182.458 513.95 181.471 514.843 181.236L516.395 180.813C517.288 180.578 518.228 181.095 518.51 181.988Z" fill="#123245"/>
<path d="M504.03 184.104C504.03 185.044 504.829 185.796 505.77 185.796L507.368 185.749C508.308 185.749 509.061 184.95 509.061 184.01C509.061 183.07 508.261 182.317 507.321 182.317L505.723 182.364C504.782 182.364 504.03 183.164 504.03 184.104Z" fill="#123245"/>
<path d="M518.792 147.528C515.69 142.403 511.599 139.771 506.851 139.865C506.428 125.996 510.001 115.23 517.335 108.648C523.118 103.476 529.276 102.677 529.323 102.677L529.229 101.737L529.135 100.796C528.853 100.843 522.412 101.643 516.207 107.19C510.706 112.08 504.406 121.717 505.017 140.053C501.821 140.57 499 142.215 496.978 144.801C494.298 148.186 492.935 152.981 492.982 159.14C492.982 159.516 493.311 159.845 493.687 159.845H494.957C495.333 159.845 495.615 159.516 495.615 159.14C495.615 145.036 503.043 142.873 506.287 142.591C514.937 141.839 518.651 152.84 519.404 155.661C519.498 156.037 519.874 156.225 520.203 156.131L521.425 155.849C521.801 155.755 522.036 155.379 521.942 155.003C521.613 153.592 520.626 150.537 518.792 147.528Z" fill="#123245"/>
<path d="M534.918 201.217H533.978C533.978 200.559 534.542 135.116 538.021 112.55L538.961 112.691C535.529 135.163 534.965 200.559 534.918 201.217Z" fill="#0C2F3D"/>
<path d="M535.945 117.53C535.953 117.01 535.538 116.583 535.019 116.575C534.5 116.567 534.073 116.982 534.065 117.501C534.057 118.02 534.472 118.448 534.991 118.456C535.51 118.463 535.937 118.049 535.945 117.53Z" fill="#0C2F3D"/>
<path d="M535.3 129.749C535.308 129.23 534.893 128.803 534.374 128.795C533.855 128.787 533.427 129.202 533.42 129.721C533.412 130.24 533.826 130.667 534.346 130.675C534.865 130.683 535.292 130.268 535.3 129.749Z" fill="#0C2F3D"/>
<path d="M534.614 141.505C534.622 140.986 534.208 140.558 533.688 140.551C533.169 140.543 532.742 140.957 532.734 141.477C532.726 141.996 533.141 142.423 533.66 142.431C534.179 142.439 534.607 142.024 534.614 141.505Z" fill="#0C2F3D"/>
<path d="M565.665 115.417L565.571 115.041C565.477 114.759 563.643 108.365 561.575 104.604C559.459 100.796 554.899 96.659 554.711 96.4709L554.099 97.1761C554.146 97.2232 558.754 101.36 560.775 105.027C562.515 108.224 564.16 113.49 564.583 114.9L552.313 121.764L561.716 125.713C560.211 129.427 549.351 155.661 546.013 164.781C543.098 172.727 536.187 194.447 534.213 200.7L518.651 127.124L527.537 122.939L516.771 120.354C516.912 118.802 517.711 113.208 520.673 109.447C523.964 105.31 527.396 101.783 527.396 101.783L526.738 101.125C526.691 101.172 523.259 104.698 519.921 108.883C516.301 113.443 515.784 120.401 515.784 120.683L515.737 121.059L524.669 123.175L517.57 126.513L533.649 202.627C533.79 206.717 534.636 231.54 537.222 263.65L538.162 263.556C535.529 231.258 534.73 206.294 534.589 202.486C535.2 200.511 543.615 173.996 546.906 165.016C550.479 155.285 562.656 125.854 562.75 125.525L562.938 125.102L554.476 121.529L565.665 115.417Z" fill="#0C2F3D"/>
<path d="M467.115 158.649L466.6 159.435L485.865 172.064L486.381 171.278L467.115 158.649Z" fill="#0C2F3D"/>
<path d="M580.145 258.573C557.014 258.103 551.561 236.806 551.467 236.571L552.36 236.336C552.407 236.524 557.719 257.163 580.098 257.586L580.145 258.573Z" fill="#0C2F3D"/>
<path d="M500.41 264.168L500.034 263.321C515.125 256.457 517.617 238.498 517.617 238.31L518.557 238.451C518.51 238.592 515.972 257.116 500.41 264.168Z" fill="#0C2F3D"/>
<path d="M407.042 134.928C401.4 133.988 390.446 128.064 389.976 127.829L390.446 126.983C390.54 127.03 401.729 133.047 407.23 133.988L407.042 134.928Z" fill="#0C2F3D"/>
<path d="M406.572 139.159C402.81 138.219 389.882 133.377 389.318 133.141L389.647 132.248C389.788 132.295 403.093 137.279 406.807 138.219L406.572 139.159Z" fill="#0C2F3D"/>
<path d="M406.101 143.39C403.281 142.92 395.523 140.194 395.194 140.1L395.523 139.206C395.617 139.253 403.516 142.027 406.242 142.497L406.101 143.39Z" fill="#0C2F3D"/>
<path d="M629.48 175.839L616.795 176.31L616.83 177.249L629.515 176.778L629.48 175.839Z" fill="#0C2F3D"/>
<path d="M616.381 180.542L616.346 181.481L629.031 181.951L629.066 181.011L616.381 180.542Z" fill="#0C2F3D"/>
<path d="M615.44 185.243L615.406 186.182L628.09 186.652L628.125 185.713L615.44 185.243Z" fill="#0C2F3D"/>
<path opacity="0.1" d="M530.894 92.1053C536.521 90.0005 540.642 86.736 542.998 84.5143C538.968 92.1224 534.514 95.7901 531.403 97.5496C531.277 96.0756 531.116 94.3023 530.894 92.1053Z" fill="#434A54" stroke="#434A54"/>
<path d="M95.9548 414.071C103.367 408.975 107.505 405.927 106.959 404.88C106.232 403.424 97.7283 405.927 81.4486 412.388C106.641 389.274 97.0007 390.775 66.4422 407.292C93.4082 373.713 95.5455 370.209 94.636 369.163C92.4988 366.66 72.3993 379.309 59.8484 393.687C74.7639 364.294 79.3113 355.513 78.2654 354.785C76.7193 353.693 53.9368 365.978 44.3873 398.465C42.8866 391.458 40.6584 382.904 38.2483 382.995C36.1565 383.086 32.3821 392.186 33.2916 407.155C22.2869 394.461 22.969 399.739 30.2903 414.981C24.5151 413.707 22.7416 413.98 22.2414 415.254C20.286 420.259 41.3405 421.852 58.0749 421.852C68.7613 421.852 106.459 419.349 106.141 415.391C106.05 413.298 98.0011 413.798 95.9548 414.071Z" fill="#3FDA26"/>
<path d="M63.5772 373.622C52.8908 389.092 46.8428 404.744 44.0234 421.442C44.2507 421.442 44.4781 421.488 44.7055 421.488C47.5249 404.653 53.8003 389.001 64.1229 373.986C64.3957 373.576 63.85 373.212 63.5772 373.622Z" fill="white"/>
<path d="M87.2238 402.833C87.633 402.605 87.2692 402.059 86.86 402.287C78.129 407.292 69.9891 413.207 61.6219 421.761C61.9402 421.761 62.304 421.761 62.6678 421.715C67.6245 417.347 73.1268 410.886 87.2238 402.833Z" fill="white"/>
<path d="M37.5206 398.602C37.5206 398.147 36.8385 398.192 36.8385 398.647C36.6111 407.019 38.0208 415.482 39.8853 421.124C40.1126 421.124 40.3855 421.17 40.6129 421.17C38.703 415.482 37.2932 407.019 37.5206 398.602Z" fill="white"/>
<path d="M52.0269 421.715C57.984 407.701 65.3052 397.282 74.5819 388C74.9002 387.681 74.4455 387.226 74.0817 387.545C64.8505 396.736 57.7566 406.609 51.2993 421.67C51.5267 421.715 51.754 421.715 52.0269 421.715Z" fill="white"/>
<path d="M56.2559 386.817C55.9376 386.817 55.8012 386.362 56.074 386.18C57.4837 385.224 59.0298 384.496 60.6669 384.041C61.1216 383.905 61.3035 384.587 60.8488 384.724C57.802 385.543 56.5742 386.817 56.2559 386.817Z" fill="white"/>
<path d="M49.6167 401.559C49.2984 401.559 49.162 401.149 49.3893 400.922C50.8445 399.83 52.3451 398.783 53.9821 397.782C54.3914 397.555 54.7097 398.146 54.3459 398.374C50.5717 400.649 49.9805 401.559 49.6167 401.559Z" fill="white"/>
<path d="M65.9874 397.6C65.6236 397.6 65.4872 397.054 65.8965 396.918C67.3061 396.463 68.7613 396.235 70.171 396.281C70.3529 396.281 70.4893 396.463 70.4893 396.645C70.4893 396.827 70.3074 397.009 70.1255 396.963C67.7154 396.918 66.2147 397.6 65.9874 397.6Z" fill="white"/>
<path d="M58.757 408.247C58.3477 408.247 58.3023 407.701 58.6661 407.565C60.3486 407.019 62.0766 406.655 63.8501 406.473C64.032 406.473 64.2138 406.609 64.2138 406.791C64.2138 406.973 64.0774 407.155 63.8956 407.155C60.7124 407.474 59.0298 408.247 58.757 408.247Z" fill="white"/>
<path d="M53.0727 418.985C52.7543 418.985 52.618 418.576 52.8908 418.348C54.4824 417.165 56.2105 416.073 57.9385 415.072C58.3478 414.845 58.6661 415.436 58.3023 415.664C54.3914 417.939 53.391 418.985 53.0727 418.985Z" fill="white"/>
<path d="M82.9493 408.611C82.7219 408.611 81.1303 407.974 78.6746 408.247C78.2199 408.293 78.129 407.61 78.5837 407.565C80.0389 407.383 81.5395 407.519 83.0402 407.929C83.4495 408.02 83.3585 408.611 82.9493 408.611Z" fill="white"/>
<path d="M73.4905 416.756C73.3086 416.756 71.6261 416.164 68.8977 415.891C68.4429 415.846 68.5339 415.163 68.9886 415.209C70.6256 415.391 72.1718 415.664 73.6269 416.073C73.9907 416.164 73.8998 416.756 73.4905 416.756Z" fill="white"/>
<path d="M38.2937 412.57C38.0663 412.57 37.8844 412.297 37.9754 412.069C38.703 410.431 39.567 408.884 40.522 407.428C40.7948 407.064 41.3405 407.428 41.1132 407.792C38.5666 411.523 38.8394 412.57 38.2937 412.57Z" fill="white"/>
<path d="M39.7944 419.531C39.567 419.531 39.3851 419.304 39.4761 419.076C39.9763 417.575 40.6584 416.164 41.4314 414.799C41.6588 414.39 42.25 414.754 42.0226 415.163C40.0217 418.576 40.3855 419.531 39.7944 419.531Z" fill="white"/>
<path d="M94.2267 481.275H35.9745C30.654 481.275 26.2886 476.952 26.2886 471.583V419.577H103.913V471.583C103.913 476.952 99.5927 481.275 94.2267 481.275Z" fill="#DFDFDF"/>
<defs>
<linearGradient id="paint0_linear_1078_1251" x1="334.537" y1="487.487" x2="332.656" y2="177.199" gradientUnits="userSpaceOnUse">
<stop stop-color="#D3E9FE"/>
<stop offset="1" stop-color="#E9F6FF"/>
</linearGradient>
<linearGradient id="paint1_linear_1078_1251" x1="133.518" y1="129.757" x2="510.34" y2="129.757" gradientUnits="userSpaceOnUse">
<stop stop-color="#588AFD"/>
<stop offset="1" stop-color="#4D71D9"/>
</linearGradient>
<linearGradient id="paint2_linear_1078_1251" x1="151.383" y1="145.741" x2="528.205" y2="145.741" gradientUnits="userSpaceOnUse">
<stop stop-color="#588AFD"/>
<stop offset="1" stop-color="#4D71D9"/>
</linearGradient>
<linearGradient id="paint3_linear_1078_1251" x1="80.9182" y1="185.832" x2="112.912" y2="185.832" gradientUnits="userSpaceOnUse">
<stop stop-color="#DCE9FF"/>
<stop offset="1" stop-color="#B6D2FF"/>
</linearGradient>
<linearGradient id="paint4_linear_1078_1251" x1="140.336" y1="171.94" x2="143.157" y2="384.931" gradientUnits="userSpaceOnUse">
<stop stop-color="#DCE9FF"/>
<stop offset="1" stop-color="#B6D2FF"/>
</linearGradient>
<linearGradient id="paint5_linear_1078_1251" x1="545.707" y1="327.526" x2="548.527" y2="460.077" gradientUnits="userSpaceOnUse">
<stop stop-color="#29056B"/>
<stop offset="1" stop-color="#6C93F5"/>
</linearGradient>
<linearGradient id="paint6_linear_1078_1251" x1="535.718" y1="214.431" x2="543.24" y2="109.121" gradientUnits="userSpaceOnUse">
<stop stop-color="#E3356F"/>
<stop offset="1" stop-color="#E882AC"/>
</linearGradient>
<linearGradient id="paint7_linear_1078_1251" x1="516.673" y1="150.874" x2="525.348" y2="370.624" gradientUnits="userSpaceOnUse">
<stop stop-color="#DCE9FF"/>
<stop offset="1" stop-color="#B6D2FF"/>
</linearGradient>
<linearGradient id="paint8_linear_1078_1251" x1="586.962" y1="203.684" x2="625.513" y2="203.684" gradientUnits="userSpaceOnUse">
<stop stop-color="#DCE9FF"/>
<stop offset="1" stop-color="#B6D2FF"/>
</linearGradient>
</defs>
</svg>
