<svg width="47" height="47" viewBox="0 0 47 47" fill="none" xmlns="http://www.w3.org/2000/svg">
<path d="M36.3976 32.2595C36.572 32.8077 36.6665 33.3912 36.6665 33.997C36.6665 37.1593 34.1032 39.7226 30.9409 39.7226C30.9057 39.7226 30.8713 39.7209 30.8361 39.72C30.4382 41.9861 28.4618 43.7081 26.0823 43.7081C25.3347 43.7081 24.6284 43.538 23.9968 43.2355H23.9959C23.3643 43.538 22.6588 43.7081 21.9121 43.7081C19.5318 43.7081 17.5553 41.9861 17.1575 39.72C17.1222 39.7209 17.0879 39.7226 17.0526 39.7226C13.8904 39.7226 11.327 37.1593 11.327 33.997C11.327 33.3912 11.4216 32.8077 11.596 32.2595C10.3156 31.0066 9.51989 29.2596 9.51989 27.3261C9.51989 25.1486 10.5287 23.2083 12.1038 21.9425C11.7782 21.2482 11.5951 20.4731 11.5951 19.6559C11.5951 17.6735 12.6641 15.9402 14.2573 15.0027C14.2573 15.0027 14.2582 15.0018 14.2599 15.001C14.7617 14.7062 15.3151 14.4897 15.9037 14.3694C16.0756 14.3342 16.2509 14.3067 16.4288 14.2886C16.4262 14.2293 16.4236 14.1692 16.4236 14.1099C16.4236 11.4426 18.5857 9.28052 21.253 9.28052C22.2721 9.28052 23.2165 9.5976 23.9959 10.1355C23.9959 10.1364 23.9968 10.1364 23.9968 10.1364C24.7762 9.5976 25.7214 9.28052 26.7406 9.28052C29.4079 9.28052 31.5699 11.4426 31.5699 14.1099C31.5699 14.1692 31.5673 14.2293 31.5648 14.2886C34.2811 14.5696 36.3984 16.8657 36.3984 19.6559C36.3984 20.4731 36.2154 21.2482 35.8897 21.9425C37.4648 23.2083 38.4737 25.1486 38.4737 27.3261C38.4737 29.2596 37.6779 31.0066 36.3976 32.2595Z" fill="#FFDD46"/>
<path d="M36.3976 32.2595C36.572 32.8077 36.6665 33.3912 36.6665 33.997C36.6665 37.1593 34.1032 39.7226 30.9409 39.7226C30.9057 39.7226 30.8713 39.7209 30.8361 39.72C30.4382 41.9861 28.4618 43.7081 26.0824 43.7081C25.3347 43.7081 24.6284 43.538 23.9968 43.2355H23.9959V10.1355C23.9959 10.1364 23.9968 10.1364 23.9968 10.1364C24.7762 9.5976 25.7214 9.28052 26.7406 9.28052C29.4079 9.28052 31.5699 11.4426 31.5699 14.1099C31.5699 14.1692 31.5674 14.2293 31.5648 14.2886C34.2811 14.5696 36.3984 16.8657 36.3984 19.6559C36.3984 20.4731 36.2154 21.2482 35.8897 21.9425C37.4648 23.2083 38.4737 25.1486 38.4737 27.3261C38.4737 29.2596 37.678 31.0066 36.3976 32.2595Z" fill="#FFB54C"/>
<path d="M25.2858 2.28897V5.01988C25.2858 5.73139 24.7083 6.30885 23.9968 6.30885C23.2853 6.30885 22.7078 5.73139 22.7078 5.01988V2.28897C22.7078 1.57746 23.2853 1 23.9968 1C24.7083 1 25.2858 1.57746 25.2858 2.28897Z" fill="#FF5959"/>
<path d="M32.784 7.20711C32.4541 7.20711 32.1242 7.08131 31.8726 6.82953C31.3692 6.32614 31.3692 5.51005 31.8726 5.00666L33.8035 3.07578C34.3068 2.5724 35.123 2.5724 35.6264 3.07578C36.1297 3.57917 36.1297 4.39526 35.6264 4.89865L33.6955 6.82953C33.4437 7.08131 33.1139 7.20711 32.784 7.20711Z" fill="#FF5959"/>
<path d="M15.2096 7.20711C14.8797 7.20711 14.5498 7.08131 14.2982 6.82953L12.3673 4.89865C11.864 4.39526 11.864 3.57917 12.3673 3.07578C12.8706 2.5724 13.6868 2.5724 14.1902 3.07578L16.1211 5.00666C16.6245 5.51005 16.6245 6.32614 16.1211 6.82953C15.8694 7.08131 15.5395 7.20711 15.2096 7.20711Z" fill="#FF5959"/>
<path d="M45.0958 9.34005L43.3445 8.78398L45.4471 7.19073C46.0145 6.76081 46.1259 5.95228 45.696 5.38488C45.2662 4.81756 44.4578 4.70593 43.8901 5.13602L39.8042 8.23213C38.9716 8.86304 39.199 10.1726 40.1927 10.488L41.9439 11.044L39.8422 12.6363C39.2748 13.0662 39.1634 13.8747 39.5933 14.4421C40.0233 15.0097 40.8317 15.1209 41.3992 14.6911C41.4742 14.6343 45.4197 11.6452 45.4938 11.5879C46.3041 10.9627 46.0983 9.66229 45.0958 9.34005Z" fill="#FF5959"/>
<path d="M8.18945 8.23157L4.10349 5.13546C3.536 4.70554 2.72739 4.81699 2.29764 5.38431C1.86764 5.95172 1.9791 6.76016 2.5465 7.19017L4.64916 8.78342C4.62166 8.79219 2.90484 9.33708 2.87742 9.34619C1.90855 9.67075 1.67833 10.9649 2.50938 11.5954L6.59456 14.6906C7.1624 15.1208 7.97067 15.0087 8.40042 14.4417C8.83033 13.8743 8.71879 13.0657 8.15147 12.6358L6.04984 11.0435L7.80104 10.4875C8.79665 10.1713 9.02033 8.86119 8.18945 8.23157Z" fill="#FF5959"/>
<path d="M39.7627 27.3265C39.7627 25.1559 38.9145 23.1047 37.4064 21.5786C37.5929 20.9582 37.6874 20.3145 37.6874 19.6563C37.6874 16.5971 35.6483 13.9968 32.7936 13.2123C32.3579 10.2631 29.8092 7.99194 26.7406 7.99194C25.779 7.99194 24.845 8.21451 23.9968 8.64159H23.9959C23.1478 8.21451 22.2146 7.99194 21.253 7.99194C18.1835 7.99194 15.6348 10.264 15.2 13.214C14.6432 13.3687 14.1095 13.5947 13.6068 13.8903C13.6 13.8937 13.5931 13.898 13.5862 13.9023C11.5625 15.1019 10.3062 17.3043 10.3062 19.6563C10.3062 20.3154 10.4007 20.9582 10.5872 21.5786C9.07995 23.1047 8.23095 25.1525 8.23095 27.3265C8.23095 29.2909 8.91582 31.1445 10.173 32.6225C9.36954 36.6604 12.1907 40.4466 16.1556 40.9553C17.301 44.1528 20.8397 45.7812 23.9959 44.6323H23.9968C27.1419 45.7769 30.6883 44.1657 31.8381 40.9553C35.8029 40.4466 38.6249 36.6604 37.8206 32.6225C39.0778 31.1445 39.7627 29.2909 39.7627 27.3265ZM22.7078 20.4666C21.3089 19.3023 19.9881 18.925 19.8987 18.901C19.2121 18.7136 18.5032 19.1175 18.3159 19.8041C18.1285 20.4915 18.5333 21.1996 19.2199 21.3878C19.2431 21.3938 21.4953 22.0718 22.7078 24.5621V42.3293C20.74 42.7822 18.779 41.5044 18.4267 39.4979C18.3167 38.8689 17.7651 38.416 17.1257 38.4315L17.0527 38.4341C14.6062 38.4341 12.616 36.4439 12.616 33.9974C12.616 33.5677 12.6779 33.1432 12.7991 32.7342C13.0526 31.8843 14.2642 30.6899 15.4217 29.92C15.7465 30.4948 16.1882 31.0534 16.7829 31.5552C17.3277 32.015 18.1406 31.9462 18.5994 31.4014C19.0592 30.8575 18.9896 30.0446 18.4456 29.5857C16.66 28.0776 17.2151 25.5546 17.2426 25.4369C17.4067 24.7469 16.9831 24.0534 16.2939 23.885C15.6022 23.7166 14.9053 24.1402 14.736 24.8319C14.7153 24.9179 14.461 26.0058 14.6208 27.3884C13.5974 27.9727 12.3797 28.9103 11.48 29.9921C11.0418 29.1835 10.8089 28.2735 10.8089 27.3265C10.8089 25.6174 11.5754 24.0216 12.9116 22.9475C13.3748 22.5754 13.5235 21.9335 13.2708 21.3955C13.0139 20.8482 12.8841 20.263 12.8841 19.6563C12.8841 18.2066 13.661 16.8498 14.9113 16.1142C14.9113 16.1142 14.9113 16.1142 14.9113 16.1133C14.9164 16.1108 14.9216 16.1073 14.9267 16.1047C14.9276 16.1047 14.9276 16.1039 14.9276 16.1039C16.3652 15.2686 17.8123 15.5067 19.2482 15.865C19.9383 16.0369 20.6377 15.6166 20.8105 14.9258C20.9823 14.2349 20.5613 13.5354 19.8712 13.3627C18.95 13.1341 18.4052 13.025 17.8974 12.9846C18.3692 11.583 19.6942 10.5699 21.253 10.5699C21.76 10.5699 22.2533 10.6773 22.7078 10.8827V20.4666ZM35.4962 31.3387C35.1481 31.679 35.0218 32.1868 35.1696 32.6509C35.3071 33.0848 35.3776 33.5385 35.3776 33.9974C35.3776 36.4439 33.3874 38.4341 30.9418 38.4341L30.8679 38.4315C30.2294 38.4143 29.6769 38.8689 29.5669 39.4979C29.2146 41.5001 27.2588 42.7839 25.2858 42.3293V31.0568C25.6613 30.4141 26.8532 28.643 28.5632 28.643H28.6036C29.3091 28.643 29.884 28.075 29.8917 27.3678C29.8994 26.6563 29.3289 26.0728 28.6165 26.0651C27.2751 26.0505 26.1631 26.5497 25.2858 27.2054V10.8827C25.7404 10.6773 26.2336 10.5699 26.7406 10.5699C28.7626 10.5699 30.3609 12.2688 30.2767 14.234C30.2483 14.9154 30.7545 15.5006 31.4325 15.5711C33.6186 15.7971 35.2513 17.7013 35.0983 19.9416C33.8317 19.3383 32.4129 19.0556 30.9934 19.1544C30.2827 19.2034 29.7473 19.8196 29.7972 20.5294C29.8462 21.24 30.4614 21.7745 31.1721 21.7255C34.4117 21.4995 37.1847 24.0646 37.1847 27.3265C37.1847 28.8484 36.5849 30.2731 35.4962 31.3387Z" fill="#FFB54C"/>
<path d="M33.0205 31.5781C32.4001 34.8452 29.0926 35.8102 28.9516 35.8497C28.9516 35.8497 27.8405 36.1634 27.3834 35.0231C27.0715 33.6997 28.2453 33.3706 28.2453 33.3706L28.253 33.368H28.2539C28.4103 33.3199 30.1762 32.7407 30.4881 31.0969C30.6213 30.3974 31.2958 29.9385 31.9953 30.0708C32.6948 30.204 33.1537 30.8786 33.0205 31.5781Z" fill="#FF9100"/>
<path d="M39.7627 27.3265C39.7627 25.1559 38.9145 23.1047 37.4064 21.5786C37.5929 20.9582 37.6874 20.3145 37.6874 19.6563C37.6874 16.5971 35.6483 13.9968 32.7936 13.2123C32.3579 10.2631 29.8092 7.99194 26.7406 7.99194C25.779 7.99194 24.8449 8.21451 23.9968 8.64159H23.9959V44.6323H23.9968C27.1419 45.7769 30.6883 44.1657 31.838 40.9553C35.8029 40.4466 38.6249 36.6604 37.8206 32.6225C39.0778 31.1445 39.7627 29.2909 39.7627 27.3265ZM35.4962 31.3387C35.1481 31.679 35.0218 32.1868 35.1696 32.6509C35.3071 33.0848 35.3776 33.5385 35.3776 33.9974C35.3776 36.4439 33.3874 38.434 30.9418 38.434L30.8679 38.4315C30.2294 38.4143 29.6769 38.8689 29.5669 39.4979C29.2146 41.5001 27.2588 42.7839 25.2858 42.3293V31.0568C25.6613 30.4141 26.8532 28.643 28.5632 28.643H28.6036C29.3091 28.643 29.884 28.075 29.8917 27.3678C29.8994 26.6563 29.3288 26.0728 28.6165 26.0651C27.2751 26.0505 26.1631 26.5497 25.2858 27.2054V10.8827C25.7403 10.6773 26.2336 10.5699 26.7406 10.5699C28.7626 10.5699 30.3609 12.2688 30.2767 14.234C30.2483 14.9154 30.7545 15.5006 31.4325 15.5711C33.6185 15.7971 35.2512 17.7013 35.0983 19.9416C33.8317 19.3383 32.4129 19.0556 30.9933 19.1544C30.2827 19.2034 29.7473 19.8196 29.7972 20.5294C29.8462 21.24 30.4614 21.7745 31.1721 21.7255C34.4117 21.4995 37.1847 24.0646 37.1847 27.3265C37.1847 28.8484 36.5849 30.2731 35.4962 31.3387Z" fill="#FF9100"/>
</svg>
