<svg width="47" height="47" viewBox="0 0 47 47" fill="none" xmlns="http://www.w3.org/2000/svg">
<path d="M14.487 29.0516L14.5921 43.3849L23.0837 44.1764L30.1037 43.4029L32.4355 29.2045L32.8585 19.4064C33.1116 13.5408 28.7779 8.48152 22.943 7.83088L2.49268 5.55088C2.22988 5.52158 2 5.72722 2 5.99165V13.7653L2.77344 16.8366L2 20.3092V24.8053L4.22698 25.5787H11.5366C13.1574 25.5787 14.487 27.4648 14.487 29.0516Z" fill="#FFD2B7"/>
<path d="M14.5922 43.3855L14.6009 44.5601C14.6027 44.8037 14.8008 45.0003 15.0444 45.0003H29.4648C29.6821 45.0003 29.8673 44.843 29.9025 44.6287L30.1037 43.4035L14.5922 43.3855Z" fill="#FFBF9B"/>
<path d="M14.4992 29.3603L14.487 27.7346C14.4748 26.1137 13.1574 24.8062 11.5366 24.8062H2V25.9593C2 26.2043 2.1986 26.4029 2.44352 26.4029H11.5366C13.1574 26.4029 14.487 27.7395 14.4992 29.3603Z" fill="#FFBF9B"/>
<path d="M15.4085 19.657C16.4153 20.9452 18.312 23.561 20.1855 22.7457C20.699 22.5223 21.1027 21.8665 21.1027 20.8927C20.9115 19.7667 20.4459 18.561 20.29 17.7764C19.8458 15.5419 20.0558 11.958 17.4343 11.958C15.8414 11.958 15.0238 12.9709 14.6268 13.7659H2V18.713L3.23569 19.4865H15.0589C15.1956 19.4865 15.3244 19.5494 15.4085 19.657Z" fill="#EBF2F8"/>
<path d="M23.7676 17.6948C23.7676 19.7788 24.8992 21.2917 25.9802 21.2917C27.0612 21.2917 28.1928 19.6829 28.1928 17.6948C27.965 16.0788 27.0612 14.8713 25.9802 14.8713C24.8992 14.8713 23.9954 16.0788 23.7676 17.6948Z" fill="#EBF2F8"/>
<path d="M19.5906 31.8801L19.7557 32.8324V43.403L22.7309 44.1765L25.7256 43.403V33.5265L25.9308 32.5777C27.2853 31.72 28.1585 30.6186 28.1585 28.9591C27.9643 28.1094 27.4859 27.4437 27.0088 27.1894C25.7129 26.4988 23.7994 27.9817 21.6103 27.2156C19.8987 26.6165 18.4072 27.536 18.0093 29.0214C18.009 30.5227 18.9166 31.3394 19.5906 31.8801Z" fill="#EBF2F8"/>
<path d="M37.5085 16.6637L42.5641 14.515C42.863 14.388 42.9285 13.9935 42.6869 13.7766L41.7459 12.9326C41.5103 12.7212 41.5656 12.338 41.8514 12.2019L45.4218 10.5014C45.7015 10.3682 45.762 9.9966 45.539 9.78167L42.8721 7.21068C42.6972 7.04199 42.4192 7.04551 42.2485 7.2185L37.7211 11.809C37.5376 11.9951 37.5538 12.2986 37.7562 12.4639L38.4917 13.0648C38.6702 13.2107 38.7072 13.4689 38.5769 13.6591L36.9693 16.0047C36.7184 16.3705 37.1004 16.8371 37.5085 16.6637Z" fill="#FF5959"/>
<path d="M34.3906 9.28513L35.9627 5.56181C36.089 5.26266 35.8616 4.93361 35.5371 4.94607L34.7682 4.97546C34.4519 4.98758 34.2251 4.67391 34.3357 4.37725L35.3719 1.59847C35.4799 1.30869 35.2656 1 34.9562 1H32.152C31.9086 1 31.7107 1.19611 31.7084 1.43957L31.6626 6.50652C31.6601 6.76777 31.8831 6.97453 32.1435 6.95253L32.7437 6.90183C32.9734 6.88241 33.1797 7.04217 33.2184 7.26939L33.5448 9.18716C33.6191 9.62424 34.2182 9.69368 34.3906 9.28513Z" fill="#FF5959"/>
<path d="M37.7148 23.3381L41.4381 24.9102C41.7372 25.0365 42.0663 24.8091 42.0538 24.4846L42.0244 23.7157C42.0123 23.3994 42.326 23.1726 42.6226 23.2832L45.4014 24.3194C45.6913 24.4275 46 24.2131 46 23.9038V21.0995C46 20.8562 45.8039 20.6583 45.5604 20.656L40.4935 20.6101C40.2322 20.6077 40.0254 20.8306 40.0474 21.091L40.0982 21.6913C40.1177 21.921 39.9579 22.1273 39.7307 22.1659L37.8129 22.4923C37.3757 22.5666 37.3062 23.1656 37.7148 23.3381Z" fill="#FF5959"/>
<path d="M19.5906 31.1063C18.9166 30.5656 18.2514 29.8522 18.0091 29.021C17.9089 29.3949 17.8769 29.8041 17.9294 30.2346C18.0596 31.3011 18.9268 32.201 19.7557 32.832V31.451C19.7556 31.3169 19.6952 31.1901 19.5906 31.1063Z" fill="#D6E3ED"/>
<path d="M25.7255 32.1777V33.5264C28.0505 32.1532 28.4693 30.32 28.1584 28.959C27.9374 29.9266 27.2852 30.9464 25.9307 31.8041C25.8028 31.8851 25.7255 32.0264 25.7255 32.1777Z" fill="#D6E3ED"/>
<path d="M19.7556 43.4031H25.7254V44.9999H19.7556V43.4031Z" fill="#D6E3ED"/>
<path d="M25.9802 20.5183C24.8992 20.5183 23.9954 19.3108 23.7676 17.6948C23.7313 17.9518 23.7115 18.2188 23.7115 18.4932C23.7115 20.4935 24.7272 22.115 25.9802 22.115C27.2332 22.115 28.2489 20.4935 28.2489 18.4932C28.2489 18.2187 28.2291 17.9518 28.1929 17.6948C27.965 19.3109 27.0612 20.5183 25.9802 20.5183Z" fill="#D6E3ED"/>
<path d="M20.1855 21.9719C18.312 22.7872 16.4152 20.1714 15.4085 18.8832C15.3244 18.7756 15.1956 18.7126 15.0589 18.7126H2V20.3094H14.6738C15.6387 21.5176 18.225 24.4219 20.1855 23.5686C21.2059 23.1247 21.2994 22.0506 21.1027 20.8923C20.9775 21.3653 20.699 21.7485 20.1855 21.9719Z" fill="#D6E3ED"/>
</svg>
