<svg width="47" height="47" viewBox="0 0 47 47" fill="none" xmlns="http://www.w3.org/2000/svg">
<path d="M42.9735 30.6443C42.7095 30.9083 42.4397 30.8975 42.1646 31.143C38.1527 34.7243 33.0065 36.3427 27.9694 35.9981C23.4709 35.6904 18.794 33.8171 15.3553 30.3782C7.93844 22.9608 7.81051 10.8787 15.0757 3.31262C15.3177 3.06056 15.5649 2.99354 15.8169 2.7576C16.5536 2.06757 15.7732 0.866611 14.8402 1.25164C14.3629 1.44863 14.1565 1.48537 13.6907 1.71609C11.5232 2.78974 9.4907 4.22903 7.6855 6.03431C-1.2285 14.9483 -1.2285 29.4007 7.6855 38.3147C11.8046 42.4338 17.1063 44.6495 22.4976 44.9618C28.7736 45.3253 34.8169 43.1097 39.6118 38.3147C41.8055 36.1209 43.5474 33.5915 44.661 30.8919C45.0466 29.9571 44.1103 29.4459 43.419 30.184C43.2736 30.3392 43.125 30.4927 42.9735 30.6443Z" fill="#FFE177"/>
<path d="M39.2274 13.2558C38.9129 8.82134 36.1016 5.41005 31.5871 5.41005C31.1358 5.41005 30.6927 5.35658 30.2603 5.42404C30.0487 5.45706 29.8395 5.49779 29.6333 5.54604C28.093 4.04389 25.988 3.11792 23.6665 3.11792C18.9457 3.11792 15.1187 6.94487 15.1187 11.6657C15.1187 16.3864 18.9457 20.2134 23.6665 20.2134C24.3387 20.2134 24.9927 20.1356 25.6202 19.9889C25.6486 20.0166 25.6771 20.0444 25.7059 20.0717C25.9811 23.9518 28.8458 27.1165 32.582 27.847C33.1157 27.9514 33.6672 27.9175 34.2315 27.9175C38.9523 27.9175 41.8939 24.1791 41.8939 19.4583C41.8939 17.0162 40.8696 14.8135 39.2274 13.2558Z" fill="#EEF5F6"/>
<path d="M25.1714 15.7337H20.9089C20.6653 15.7337 20.4412 15.6003 20.3252 15.3861C20.209 15.1719 20.2196 14.9114 20.3526 14.7072L23.8469 9.34436H21.04C20.6733 9.34436 20.376 9.04715 20.376 8.68036C20.376 8.31356 20.6733 8.01636 21.04 8.01636H25.0721C25.3157 8.01636 25.5398 8.14978 25.6559 8.36403C25.7719 8.57819 25.7614 8.83875 25.6284 9.0429L22.1341 14.4057H25.1713C25.538 14.4057 25.8353 14.7029 25.8353 15.0697C25.8354 15.4364 25.5381 15.7337 25.1714 15.7337Z" fill="#7A6D79"/>
<path d="M31.0356 18.5367H26.7731C26.5295 18.5367 26.3054 18.4033 26.1894 18.1891C26.0733 17.9749 26.0838 17.7143 26.2168 17.5102L29.7111 12.1473H26.9042C26.5375 12.1473 26.2402 11.8501 26.2402 11.4833C26.2402 11.1165 26.5375 10.8193 26.9042 10.8193H30.9363C31.18 10.8193 31.4041 10.9528 31.5201 11.167C31.6363 11.3812 31.6257 11.6417 31.4927 11.8459L27.9984 17.2087H31.0356C31.4023 17.2087 31.6996 17.5059 31.6996 17.8727C31.6996 18.2395 31.4023 18.5367 31.0356 18.5367Z" fill="#7A6D79"/>
<path d="M36.8998 21.3392H32.6373C32.3937 21.3392 32.1696 21.2058 32.0535 20.9915C31.9375 20.7774 31.948 20.5168 32.081 20.3127L35.5753 14.9498H32.7684C32.4016 14.9498 32.1044 14.6526 32.1044 14.2858C32.1044 13.919 32.4016 13.6218 32.7684 13.6218H36.8004C37.0441 13.6218 37.2682 13.7552 37.3842 13.9695C37.5004 14.1837 37.4898 14.4442 37.3568 14.6484L33.8624 20.0112H36.8997C37.2664 20.0112 37.5637 20.3085 37.5637 20.6752C37.5638 21.042 37.2665 21.3392 36.8998 21.3392Z" fill="#7A6D79"/>
<path d="M20.7159 25.4467C20.7159 26.4865 19.9615 27.241 18.9215 27.241C18.7042 27.241 18.4954 27.2927 18.3011 27.2249C17.5661 26.9685 17.0387 26.2692 17.0387 25.4467C17.0387 24.6242 17.5661 23.9249 18.3011 23.6685C18.4953 23.6007 18.7041 23.6524 18.9215 23.6524C19.9615 23.6524 20.7159 24.4068 20.7159 25.4467Z" fill="#EEF5F6"/>
<path d="M13.4264 2.58035C13.1745 2.81638 12.9273 3.06038 12.6852 3.31253C5.42008 10.8786 5.54801 22.9607 12.9649 30.3781C17.0795 34.493 22.5867 36.3656 27.9694 35.9973C23.4709 35.6896 19.0596 33.8169 15.6209 30.3781C8.20402 22.9607 8.07609 10.8786 15.3412 3.31253C15.5833 3.06047 15.8305 2.81638 16.0824 2.58035C16.8191 1.89032 16.0388 0.689365 15.1057 1.0744C14.6285 1.2713 14.1568 1.48599 13.6912 1.71671C13.7625 2.00427 13.6973 2.32679 13.4264 2.58035Z" fill="#FFC344"/>
<path d="M43.419 29.9182C43.2736 30.0735 43.125 30.227 42.9734 30.3787C42.7093 30.6428 42.4389 30.8966 42.1637 31.1422C41.0523 33.7476 39.4356 36.1889 37.3099 38.3146C33.1908 42.4336 27.889 44.6477 22.4977 44.9601C28.7737 45.3236 35.171 43.1095 39.9659 38.3146C42.1597 36.1208 43.813 33.5914 44.9266 30.8917C45.3122 29.9569 44.1104 29.1802 43.419 29.9182Z" fill="#FFC344"/>
<path d="M40.1127 13.2561C39.7982 8.8216 36.1016 5.32178 31.5871 5.32178C31.1358 5.32178 30.6928 5.35763 30.2605 5.4251C34.1521 6.03288 37.1738 9.26586 37.4568 13.2561C39.099 14.8137 40.1233 17.0164 40.1233 19.4585C40.1233 23.7273 36.9941 27.2648 32.9046 27.9033C33.3371 27.9708 33.7802 28.0063 34.2316 28.0063C38.9524 28.0063 42.7793 24.1793 42.7793 19.4585C42.7793 17.0164 41.7549 14.8137 40.1127 13.2561Z" fill="#DEECF1"/>
<path d="M18.9216 23.5632C18.7041 23.5632 18.4962 23.602 18.3018 23.6698C19.0367 23.9263 19.5649 24.6237 19.5649 25.4461C19.5649 26.2685 19.0367 26.9658 18.3018 27.2223C18.4962 27.2901 18.7041 27.3289 18.9216 27.3289C19.9614 27.3289 20.8044 26.4859 20.8044 25.4461C20.8044 24.4062 19.9615 23.5632 18.9216 23.5632Z" fill="#DEECF1"/>
<path d="M29.4103 25.9213C29.4103 27.3085 28.3743 28.3446 26.987 28.3446C26.6753 28.3446 26.3769 28.3763 26.1015 28.2726C25.1512 27.9146 24.4751 26.9968 24.4751 25.9213C24.4751 24.8809 25.1077 23.9882 26.0092 23.6069C26.3097 23.4797 26.6401 23.498 26.987 23.498C28.3743 23.498 29.4103 24.5341 29.4103 25.9213Z" fill="#EEF5F6"/>
<path d="M26.987 23.4092C26.6753 23.4092 26.3771 23.4664 26.1017 23.5701C27.052 23.9283 27.7281 24.8455 27.7281 25.921C27.7281 26.9966 27.0519 27.9138 26.1017 28.2718C26.3771 28.3756 26.6753 28.4328 26.987 28.4328C28.3742 28.4328 29.4988 27.3082 29.4988 25.9209C29.4989 24.5338 28.3743 23.4092 26.987 23.4092Z" fill="#DEECF1"/>
</svg>
