<svg width="47" height="47" viewBox="0 0 47 47" fill="none" xmlns="http://www.w3.org/2000/svg">
<path d="M42.4407 26.9467L38.4336 20.5352V19.2167C38.4336 9.72337 30.7102 2 21.2167 2C16.618 2 12.2945 3.79088 9.04259 7.04267C5.7908 10.2945 3.99992 14.6181 4 19.2168C4 22.7363 4.93743 26.2035 6.71068 29.2434C8.76284 32.7615 9.65274 36.7649 9.28396 40.821L9.0289 43.6262C8.96188 44.3639 9.54272 45 10.2835 45H27.9635C28.742 45 29.3341 44.301 29.2061 43.5331L28.5828 39.793H35.8346C36.9585 39.793 38.0161 39.2981 38.7362 38.4353C39.4563 37.5724 39.754 36.4433 39.553 35.3376L39.4469 34.7539L38.9887 33.8004V32.2344L38.5974 30.0823L41.84 28.7852C42.5693 28.4935 42.8571 27.6129 42.4407 26.9467Z" fill="#FFDDCE"/>
<path d="M42.4407 26.9467L38.4336 20.5352V19.2167C38.4336 9.72337 30.7102 2 21.2167 2V45H27.9636C28.742 45 29.3342 44.301 29.2062 43.5331L28.5828 39.793H35.8346C36.9585 39.793 38.0161 39.2981 38.7362 38.4353C39.4563 37.5724 39.754 36.4433 39.553 35.3376L39.4468 34.7539L38.9887 33.8004V32.2344L38.5974 30.0823L41.84 28.7852C42.5693 28.4935 42.8571 27.6129 42.4407 26.9467Z" fill="#FFCBBC"/>
<path d="M39.4467 34.7539H36.9521C35.9127 34.7539 34.8875 34.9959 33.9578 35.4608C33.3354 35.772 32.5787 35.5197 32.2676 34.8974C31.9564 34.2752 32.2087 33.5184 32.831 33.2072H32.831C34.1107 32.5675 35.5216 32.2344 36.9521 32.2344H38.9886" fill="#FFBCA7"/>
<path d="M19.5881 17.588C20.0801 17.0961 20.0801 16.2985 19.5881 15.8065L16.6486 12.867C16.1567 12.3751 15.3591 12.3751 14.8671 12.867C14.3751 13.359 14.3751 14.1566 14.8671 14.6486L15.6559 15.4375H10.2988C9.6031 15.4375 9.03906 16.0015 9.03906 16.6972C9.03906 17.393 9.6031 17.957 10.2988 17.957H15.6559L14.8671 18.7459C14.3751 19.2378 14.3751 20.0354 14.8671 20.5274C15.3591 21.0194 16.1567 21.0194 16.6486 20.5274L19.5881 17.588Z" fill="#007A9F"/>
<path d="M19.816 21.5281C19.2371 21.1422 18.455 21.2986 18.0691 21.8775L16.3894 24.397C16.0035 24.9759 16.1599 25.7581 16.7388 26.144C17.3177 26.5299 18.0998 26.3735 18.4857 25.7946L20.1654 23.2751C20.5513 22.6962 20.3949 21.9141 19.816 21.5281Z" fill="#FF5E95"/>
<path d="M22.6176 11.8666C23.1965 12.2525 23.9786 12.0962 24.3645 11.5173L26.0442 8.99773C26.4301 8.41882 26.2737 7.63668 25.6948 7.25077C25.1159 6.86486 24.3338 7.02124 23.9479 7.60015L22.2682 10.1197C21.8823 10.6986 22.0387 11.4806 22.6176 11.8666Z" fill="#FF0059"/>
<path d="M32.1348 15.4375H26.7777L27.5666 14.6486C28.0586 14.1566 28.0586 13.359 27.5666 12.867C27.0746 12.3751 26.277 12.3751 25.7851 12.867L22.8456 15.8065C22.3536 16.2985 22.3536 17.0961 22.8456 17.588L25.7851 20.5275C26.277 21.0195 27.0746 21.0195 27.5666 20.5275C28.0586 20.0355 28.0586 19.2379 27.5666 18.7459L26.7777 17.9571H32.1348C32.8305 17.9571 33.3946 17.393 33.3946 16.6973C33.3946 16.0016 32.8305 15.4375 32.1348 15.4375Z" fill="#00465F"/>
<path d="M18.4857 7.60015C18.0998 7.02124 17.3177 6.86486 16.7388 7.25077C16.1599 7.63668 16.0035 8.41882 16.3894 8.99773L18.0691 11.5173C18.455 12.0962 19.2371 12.2525 19.816 11.8666C20.3949 11.4807 20.5513 10.6986 20.1654 10.1197L18.4857 7.60015Z" fill="#FF5E95"/>
<path d="M24.3646 21.8775C23.9787 21.2986 23.1966 21.1422 22.6177 21.5281C22.0388 21.914 21.8824 22.6962 22.2683 23.2751L23.948 25.7946C24.3339 26.3735 25.116 26.5299 25.6949 26.144C26.2738 25.7581 26.4302 24.9759 26.0443 24.397L24.3646 21.8775Z" fill="#FF0059"/>
</svg>
